{
  "accessors": [
    {
      "bufferView": 2,
      "componentType": 5126,
      "count": 36470,
      "max": [
        0.1640467345714569,
        0.0874699130654335,
        0.7610280513763428
      ],
      "min": [
        -0.16551700234413147,
        -0.0878947302699089,
        5.9409611452565514e-08
      ],
      "type": "VEC3"
    },
    {
      "bufferView": 2,
      "byteOffset": 437640,
      "componentType": 5126,
      "count": 36470,
      "type": "VEC3"
    },
    {
      "bufferView": 3,
      "componentType": 5126,
      "count": 36470,
      "type": "VEC4"
    },
    {
      "bufferView": 1,
      "componentType": 5126,
      "count": 36470,
      "type": "VEC2"
    },
    {
      "bufferView": 1,
      "byteOffset": 291760,
      "componentType": 5126,
      "count": 36470,
      "type": "VEC2"
    },
    {
      "bufferView": 1,
      "byteOffset": 583520,
      "componentType": 5126,
      "count": 36470,
      "type": "VEC2"
    },
    {
      "bufferView": 0,
      "componentType": 5125,
      "count": 171846,
      "type": "SCALAR"
    }
  ],
  "asset": {
    "generator": "fab-model-conversion",
    "version": "2.0"
  },
  "bufferViews": [
    {
      "buffer": 0,
      "byteLength": 687384,
      "target": 34963
    },
    {
      "buffer": 0,
      "byteLength": 875280,
      "byteOffset": 687384,
      "byteStride": 8,
      "target": 34962
    },
    {
      "buffer": 0,
      "byteLength": 875280,
      "byteOffset": 1562664,
      "byteStride": 12,
      "target": 34962
    },
    {
      "buffer": 0,
      "byteLength": 583520,
      "byteOffset": 2437944,
      "byteStride": 16,
      "target": 34962
    }
  ],
  "buffers": [
    {
      "byteLength": 3021464,
      "uri": "scene.bin"
    }
  ],
  "images": [
    {
      "uri": "textures/StylizedDigestiveSystem_Texture_baseColor.png"
    },
    {
      "uri": "textures/StylizedDigestiveSystem_Texture_metallicRoughness.png"
    },
    {
      "uri": "textures/StylizedDigestiveSystem_Texture_normal.png"
    }
  ],
  "materials": [
    {
      "doubleSided": true,
      "name": "StylizedDigestiveSystem_Texture",
      "normalTexture": {
        "index": 2
      },
      "pbrMetallicRoughness": {
        "baseColorTexture": {
          "index": 0
        },
        "metallicFactor": 0.0,
        "metallicRoughnessTexture": {
          "index": 1
        }
      }
    }
  ],
  "meshes": [
    {
      "name": "Stylized Digestive System_StylizedDigestiveSystem_Texture_0",
      "primitives": [
        {
          "attributes": {
            "NORMAL": 1,
            "POSITION": 0,
            "TANGENT": 2,
            "TEXCOORD_0": 3,
            "TEXCOORD_1": 4,
            "TEXCOORD_2": 5
          },
          "indices": 6,
          "material": 0,
          "mode": 4
        }
      ]
    }
  ],
  "nodes": [
    {
      "children": [
        1
      ],
      "matrix": [
        1.0,
        0.0,
        0.0,
        0.0,
        0.0,
        2.220446049250313e-16,
        -1.0,
        0.0,
        0.0,
        1.0,
        2.220446049250313e-16,
        0.0,
        0.0,
        0.0,
        0.0,
        1.0
      ],
      "name": "Sketchfab_model"
    },
    {
      "children": [
        2
      ],
      "matrix": [
        0.009999999776482582,
        0.0,
        0.0,
        0.0,
        0.0,
        0.0,
        0.009999999776482582,
        0.0,
        0.0,
        -0.009999999776482582,
        0.0,
        0.0,
        0.0,
        0.0,
        0.0,
        1.0
      ],
      "name": "stylizeddigestivesystem.fbx"
    },
    {
      "children": [
        3
      ],
      "name": "RootNode"
    },
    {
      "children": [
        4
      ],
      "matrix": [
        100.0,
        0.0,
        0.0,
        0.0,
        0.0,
        -1.629206793918314e-05,
        -99.99999999999868,
        0.0,
        0.0,
        99.99999999999868,
        -1.629206793918314e-05,
        0.0,
        0.0,
        0.0,
        0.0,
        1.0
      ],
      "name": "Stylized Digestive System"
    },
    {
      "mesh": 0,
      "name": "Stylized Digestive System_StylizedDigestiveSystem_Texture_0"
    }
  ],
  "samplers": [
    {
      "magFilter": 9729,
      "minFilter": 9987,
      "wrapS": 10497,
      "wrapT": 10497
    }
  ],
  "scene": 0,
  "scenes": [
    {
      "name": "Sketchfab_Scene",
      "nodes": [
        0
      ]
    }
  ],
  "textures": [
    {
      "sampler": 0,
      "source": 0
    },
    {
      "sampler": 0,
      "source": 1
    },
    {
      "sampler": 0,
      "source": 2
    }
  ]
}
