<svg xmlns="http://www.w3.org/2000/svg" xmlns:xlink="http://www.w3.org/1999/xlink" width="1120" zoomAndPan="magnify" viewBox="0 0 840 839.999992" height="1120" preserveAspectRatio="xMidYMid meet" version="1.0"><defs><clipPath id="504165cdda"><path d="M 36.125 0 L 686.304688 0 L 686.304688 840 L 36.125 840 Z M 36.125 0 " clip-rule="nonzero"/></clipPath></defs><path fill="#ffffff" d="M 297.046875 189.261719 C 296.582031 189.441406 296.109375 189.5625 295.644531 189.726562 C 286.152344 192.953125 276.0625 193.714844 265.320312 192.023438 C 255.351562 190.5 246.789062 187.386719 239.691406 182.695312 C 225.855469 173.542969 216.695312 159.878906 212.179688 141.761719 C 210.601562 135.480469 209.960938 128.503906 210.128906 120.878906 C 211.484375 116.363281 212.886719 111.726562 214.355469 107.035156 C 217.105469 98.359375 221.101562 90.785156 226.3125 84.339844 C 236.632812 71.554688 252.363281 64.457031 273.523438 63.101562 C 283.679688 62.460938 292.355469 63.628906 299.453125 66.566406 C 315.878906 73.3125 327.902344 84.625 335.464844 100.46875 C 339.152344 108.148438 340.859375 117.710938 340.628906 129.089844 C 340.398438 139.996094 338.277344 149.378906 334.347656 157.183594 C 326.664062 172.496094 314.226562 183.226562 297.046875 189.261719 Z M 297.046875 189.261719 " fill-opacity="1" fill-rule="nonzero"/><g clip-path="url(#504165cdda)"><path fill="#ffffff" d="M 36.054688 -44.515625 L 108.082031 -44.515625 C 108.082031 -44.515625 108.082031 315.59375 108.082031 321.464844 C 129.609375 321.464844 151.0625 321.464844 172.578125 321.464844 C 172.996094 321.464844 173.355469 321.464844 173.765625 321.464844 C 174.554688 320.777344 175.328125 320.109375 176.089844 319.410156 C 181.441406 314.488281 186.296875 308.996094 190.5625 302.949219 C 195.078125 296.558594 199.730469 290.40625 204.601562 284.425781 C 207.238281 281.136719 209.941406 277.875 212.703125 274.707031 C 223.367188 262.339844 233.585938 249.519531 243.324219 236.097656 C 243.324219 236.085938 243.3125 236.058594 243.324219 236.039062 C 244.519531 234.386719 245.804688 232.796875 247.09375 231.238281 C 256.226562 220.238281 267.691406 211.511719 281.488281 205.046875 C 282.472656 204.582031 283.53125 204.15625 284.5625 203.746094 C 286.644531 202.929688 288.78125 202.195312 291.046875 201.589844 C 292.171875 201.292969 293.371094 201.035156 294.550781 200.785156 C 296.917969 200.28125 299.351562 199.882812 301.898438 199.59375 C 304.441406 199.304688 307.089844 199.128906 309.832031 199.054688 C 332.871094 198.527344 356.003906 198.292969 379.042969 198.292969 C 402.09375 198.292969 425.226562 198.097656 448.265625 197.808594 C 463.222656 197.632812 477.253906 198.421875 490.324219 200.246094 C 490.34375 200.246094 490.359375 200.246094 490.378906 200.246094 C 495.171875 200.894531 499.585938 202.113281 503.507812 203.800781 C 504.507812 204.25 505.503906 204.730469 506.46875 205.207031 C 508.410156 206.171875 510.289062 207.175781 512.082031 208.28125 C 515.667969 210.5 518.910156 213.039062 521.910156 215.84375 C 521.917969 215.851562 521.957031 215.832031 521.964844 215.84375 C 524.195312 217.941406 526.265625 220.21875 528.171875 222.644531 C 529.453125 224.269531 530.671875 225.949219 531.796875 227.714844 C 534.054688 231.253906 536.003906 235.09375 537.683594 239.21875 C 537.863281 239.683594 538.09375 240.144531 538.328125 240.621094 C 542.488281 248.304688 546.546875 255.902344 550.523438 263.351562 C 552.34375 266.820312 554.167969 270.171875 555.976562 273.394531 C 564.253906 288.296875 572.402344 303.394531 580.4375 318.648438 C 581.617188 320.878906 582.640625 323.203125 583.523438 325.664062 C 584.398438 328.125 585.121094 330.734375 585.679688 333.4375 C 586.320312 336.785156 586.460938 340.238281 586.105469 343.695312 C 586.050781 344.105469 586.003906 344.578125 585.894531 345.042969 C 585.25 347.335938 584.742188 349.613281 584.332031 351.953125 C 582.679688 354.703125 580.707031 357.140625 578.441406 359.304688 C 576.925781 360.742188 575.253906 362.054688 573.480469 363.242188 C 570.796875 365.015625 567.851562 366.523438 564.570312 367.71875 C 564.507812 367.75 564.433594 367.832031 564.402344 367.933594 C 564.375 368.035156 564.347656 368.15625 564.347656 368.363281 C 559.238281 368.363281 554.222656 368.363281 549.113281 368.363281 C 548.703125 368.363281 548.339844 368.363281 547.933594 368.363281 C 546.828125 368 545.777344 367.609375 544.738281 367.171875 C 542.675781 366.300781 540.734375 365.277344 538.96875 364.097656 C 538.074219 363.511719 537.230469 362.878906 536.429688 362.203125 C 535.613281 361.535156 534.84375 360.789062 534.109375 360.046875 C 532.632812 358.550781 531.285156 356.945312 530.113281 355.132812 C 529.527344 354.230469 529.007812 353.253906 528.488281 352.269531 C 520.683594 337.257812 512.898438 322.214844 505.160156 307.027344 C 498.769531 294.476562 492.285156 282.074219 485.769531 269.820312 C 462.730469 269.820312 439.597656 269.820312 416.558594 269.820312 C 416.140625 269.820312 415.777344 269.820312 415.371094 269.820312 C 422.167969 286.066406 428.832031 302.519531 435.34375 319.125 C 441.847656 335.726562 448.230469 352.160156 454.613281 368.585938 C 458.039062 377.382812 461.671875 385.910156 465.472656 394.171875 C 465.472656 394.1875 465.460938 394.214844 465.472656 394.226562 C 466.734375 396.976562 468.054688 399.699219 469.355469 402.382812 C 469.753906 408.28125 470.152344 414.152344 470.601562 419.988281 L 470.65625 419.988281 C 471.828125 435.53125 473.171875 450.777344 474.652344 465.789062 C 476.816406 487.082031 478.8125 508.191406 480.6875 529.128906 C 482.09375 544.382812 483.792969 559.222656 485.789062 573.648438 C 490.304688 574.996094 495.757812 575.648438 502.214844 575.527344 C 525.265625 575.050781 548.378906 574.820312 571.417969 574.820312 C 590.59375 574.820312 609.722656 575.171875 628.839844 575.933594 C 629.722656 575.933594 630.894531 576.054688 632.417969 576.222656 C 637.582031 576.761719 642.164062 578.109375 646.09375 580.28125 C 660.929688 588.253906 671.074219 601.222656 676.472656 619.21875 C 677.875 623.734375 679.296875 628.191406 680.753906 632.585938 C 682.34375 637.34375 684.222656 641.503906 686.386719 645.195312 C 681.871094 646.550781 676.417969 647.191406 669.960938 647.070312 C 646.910156 646.597656 623.796875 646.363281 600.757812 646.363281 C 577.707031 646.363281 554.59375 646.363281 531.542969 646.363281 C 508.503906 646.363281 485.390625 646.597656 462.339844 647.070312 C 451.488281 647.246094 442.105469 646.121094 434.304688 643.671875 C 433.828125 643.492188 433.355469 643.316406 432.890625 643.085938 C 425.21875 638.988281 419.988281 632.300781 417.359375 623.035156 C 416.066406 618.632812 415.128906 613.53125 414.597656 607.726562 C 412.65625 587.140625 410.601562 566.382812 408.503906 545.5 C 406.328125 524.503906 404.339844 503.738281 402.464844 483.21875 C 401.925781 477.226562 400.753906 472.179688 399 468.082031 C 391.140625 483.273438 383.523438 498.816406 376.070312 514.710938 C 368.863281 530.320312 361.578125 545.796875 354.25 561.226562 C 350.320312 569.441406 346.445312 577.46875 342.515625 585.269531 C 335.0625 600.117188 327.789062 615.007812 320.644531 630.078125 C 313.195312 645.742188 305.632812 661.339844 297.949219 676.828125 C 290.386719 692.25 283.046875 707.914062 275.960938 723.855469 C 272.375 732.011719 267.679688 739.109375 261.929688 745.082031 C 253.550781 753.882812 240.171875 757.996094 221.871094 757.457031 C 204.273438 756.929688 186.6875 756.640625 169.082031 756.640625 C 176.292969 740.800781 183.742188 725.136719 191.425781 709.714844 C 199.054688 694.292969 206.679688 678.804688 214.363281 663.144531 C 221.339844 648.835938 228.382812 634.40625 235.59375 619.804688 C 243.042969 604.503906 250.542969 588.839844 258.058594 572.941406 C 265.320312 557.511719 272.597656 541.980469 279.878906 526.425781 C 287.332031 510.53125 294.828125 494.933594 302.464844 479.621094 C 310.136719 464.144531 317.710938 448.535156 325.105469 432.882812 C 323.515625 428.601562 321.871094 424.261719 320.292969 419.980469 L 320.265625 419.980469 C 315.628906 407.546875 310.929688 395.292969 306.171875 383.207031 C 299.546875 366.375 292.699219 350.011719 285.601562 334.183594 C 285.304688 333.53125 285.074219 332.835938 284.839844 332.128906 C 282.203125 324.742188 279.230469 317.65625 275.820312 310.910156 C 265.378906 323.515625 254.953125 336.144531 244.457031 348.863281 C 239.234375 355.253906 234.050781 361.785156 229.007812 368.410156 C 218.980469 381.488281 204.070312 389.367188 184.199219 391.894531 C 178.394531 392.65625 172.625 392.972656 166.75 392.972656 C 147.984375 392.972656 128.039062 393.167969 109.273438 393.566406 C 108.863281 393.566406 108.492188 393.753906 108.082031 394.152344 C 108.054688 394.253906 108.082031 396.140625 108.082031 396.242188 C 108.082031 400.5625 108.082031 884.484375 108.082031 884.484375 L 36.054688 884.484375 " fill-opacity="1" fill-rule="nonzero"/></g></svg>