<?xml version="1.0" standalone="no"?>
<!DOCTYPE svg PUBLIC "-//W3C//DTD SVG 20010904//EN"
 "http://www.w3.org/TR/2001/REC-SVG-20010904/DTD/svg10.dtd">
<svg version="1.0" xmlns="http://www.w3.org/2000/svg"
 width="500.000000pt" height="500.000000pt" viewBox="0 0 500.000000 500.000000"
 preserveAspectRatio="xMidYMid meet">

<g transform="translate(0.000000,500.000000) scale(0.100000,-0.100000)"
fill="#000000" stroke="none">
<path d="M1140 2501 l0 -1947 115 -3 c73 -1 115 1 115 8 0 14 -30 22 -68 17
-18 -2 -35 0 -38 5 -3 5 17 9 45 9 27 0 52 -4 55 -9 9 -13 47 -1 39 13 -3 6
-2 7 2 3 18 -16 13 -35 -9 -31 -20 4 -20 4 -1 -5 11 -5 23 -10 28 -10 4 -1 7
463 7 1030 0 567 2 1035 5 1040 8 12 -4 49 -16 49 -5 0 -9 -4 -9 -10 0 -5 -4
-10 -10 -10 -16 0 -11 17 7 24 10 4 22 1 28 -6 5 -7 16 -13 23 -14 27 -2 32
-4 32 -13 0 -5 -9 -7 -20 -4 -11 3 -20 0 -20 -6 0 -18 51 -13 66 7 10 12 13
13 9 2 -4 -11 2 -16 19 -18 14 -1 28 3 31 8 3 6 30 9 58 8 l52 -1 -55 -7 c-43
-6 -35 -7 35 -4 115 4 125 6 125 21 0 7 10 13 22 13 21 0 21 0 2 -16 -18 -14
-17 -14 6 -2 14 7 28 11 32 10 10 -2 89 75 134 133 41 52 58 73 87 105 9 11
17 24 17 29 0 5 12 16 26 26 24 16 26 16 40 -2 7 -10 14 -25 14 -35 0 -9 5
-18 11 -20 10 -3 16 -24 18 -58 1 -13 3 -13 10 0 6 8 8 17 5 21 -2 4 3 10 12
13 9 3 12 2 9 -5 -4 -6 -9 -25 -11 -42 -4 -24 -2 -28 5 -17 7 9 11 10 11 3 0
-6 -4 -14 -10 -18 -14 -9 0 -37 16 -31 8 3 14 1 14 -4 0 -6 -4 -10 -10 -10
-16 0 0 -27 23 -39 12 -6 14 -9 5 -7 -25 7 -22 -10 4 -28 12 -9 17 -16 10 -16
-6 0 -12 -5 -12 -10 0 -7 6 -7 18 -1 14 8 18 5 19 -11 1 -12 7 -24 14 -28 8
-6 8 -9 -1 -15 -7 -4 -16 -1 -21 6 -7 11 -9 10 -9 -3 0 -10 5 -18 12 -18 6 0
9 -3 6 -6 -3 -3 4 -31 16 -62 19 -49 20 -61 9 -82 -10 -21 -10 -26 2 -33 19
-10 19 -24 0 -24 -8 0 -11 5 -8 11 3 6 -3 2 -14 -9 -12 -11 -20 -22 -20 -25 1
-3 -11 -29 -26 -58 -15 -29 -22 -50 -16 -46 7 4 10 1 7 -7 -3 -8 -11 -13 -17
-11 -7 1 -10 -2 -6 -8 3 -5 1 -10 -5 -10 -7 0 -9 -7 -6 -16 3 -8 2 -12 -4 -9
-6 4 -10 -5 -10 -20 0 -14 4 -24 8 -21 5 3 9 -1 9 -9 0 -12 -4 -12 -20 2 -19
17 -20 17 -14 1 4 -10 2 -18 -4 -18 -9 0 -39 -60 -43 -86 -1 -7 -6 -18 -12
-25 -25 -36 -55 -100 -49 -109 3 -5 3 -10 -2 -10 -12 0 -35 -54 -24 -58 5 -2
-3 -15 -17 -29 -16 -17 -22 -28 -15 -30 8 -3 4 -12 -11 -26 -22 -21 -55 -83
-38 -73 5 3 9 -1 9 -8 0 -8 -6 -12 -13 -9 -8 3 -21 -13 -32 -38 -18 -38 -18
-45 -5 -54 13 -10 13 -13 -1 -24 -14 -12 -16 -11 -16 5 -1 15 -3 14 -15 -7 -8
-14 -15 -32 -17 -40 -2 -7 -8 -19 -15 -27 -9 -9 -9 -20 -3 -38 13 -32 13 -31
-6 -38 -12 -5 -15 -2 -10 11 4 11 -1 8 -14 -7 -21 -27 -44 -84 -30 -75 5 3 10
-5 12 -17 2 -13 9 -22 16 -20 6 1 12 -5 12 -14 0 -8 -4 -13 -9 -10 -10 7 -24
-22 -16 -34 3 -4 -4 -6 -14 -3 -20 5 -37 44 -17 40 6 -1 14 -6 18 -12 5 -6 8
-6 8 2 0 7 -8 17 -17 22 -10 6 -12 11 -5 11 6 0 12 4 12 10 0 17 -29 -1 -37
-23 -4 -12 -7 -24 -8 -27 0 -3 -9 -20 -19 -38 -13 -25 -14 -37 -6 -47 8 -10 8
-15 0 -20 -8 -5 -8 -11 -1 -19 8 -9 7 -13 -3 -13 -15 0 -16 14 -3 35 5 6 5 12
0 12 -4 0 -15 -13 -24 -29 l-17 -29 89 -1 c74 -2 89 1 89 14 0 8 9 15 19 15
14 0 18 -5 14 -20 -5 -19 -2 -19 43 -14 27 4 65 15 85 25 40 20 99 97 82 107
-12 8 -1 46 16 57 15 9 14 -8 -1 -23 -6 -6 -9 -14 -6 -17 5 -6 34 47 40 75 2
8 8 18 13 22 6 4 2 8 -7 8 -22 0 -23 16 -2 24 10 4 13 2 9 -7 -4 -6 3 -1 14
13 23 28 26 40 11 40 -5 0 -10 5 -10 11 0 6 6 9 13 6 10 -4 12 3 9 23 -4 26
-2 28 19 23 17 -5 21 -3 16 9 -3 9 3 25 13 36 11 11 17 28 14 39 -3 12 4 28
19 43 22 23 57 81 57 95 0 3 -5 5 -11 5 -5 0 -8 -4 -4 -9 3 -5 0 -13 -6 -17
-8 -4 -9 -3 -5 4 4 7 1 12 -6 12 -9 0 -9 3 2 10 10 6 11 10 3 10 -7 0 -13 5
-13 12 0 9 3 9 12 0 7 -7 17 -12 23 -12 17 0 34 44 28 71 -3 17 -2 20 5 11 7
-10 11 -10 21 2 8 10 9 16 1 21 -13 8 -13 35 0 35 5 0 7 -7 4 -15 -9 -23 4
-18 17 8 7 12 12 37 10 55 -1 18 3 32 9 32 7 0 9 -9 5 -22 -5 -20 -5 -21 5 -5
7 10 9 26 5 35 -6 15 -9 14 -26 -7 -21 -26 -25 -21 -8 10 6 13 18 19 32 17 16
-2 27 7 44 37 26 45 29 59 11 49 -7 -4 -3 3 9 15 13 12 23 27 23 33 0 6 -11 1
-25 -12 -14 -13 -25 -21 -25 -17 0 8 44 52 53 52 4 0 14 13 22 29 14 26 13 28
-1 22 -14 -5 -15 -4 -4 9 7 8 16 13 20 10 4 -3 10 4 13 15 6 24 -6 26 -27 4
-9 -9 -16 -11 -16 -4 0 6 14 17 31 24 19 8 37 26 45 46 14 32 42 37 36 6 -2
-9 2 -16 8 -16 6 0 9 4 6 9 -3 4 3 16 14 26 18 16 18 16 13 -4 -3 -12 -10 -24
-15 -27 -5 -3 -2 -15 8 -25 14 -15 15 -22 5 -32 -10 -9 -11 -8 -5 8 4 11 4 17
0 14 -4 -4 -9 -19 -11 -35 -4 -24 -3 -26 5 -11 6 9 15 17 20 17 17 0 11 -25
-9 -37 -14 -9 -19 -21 -17 -45 2 -18 4 -50 5 -71 0 -21 4 -36 9 -34 4 3 7 -32
8 -76 0 -116 15 -237 28 -237 6 0 4 -5 -4 -10 -8 -5 -10 -10 -4 -10 6 0 11 -8
11 -17 0 -34 3 -43 13 -43 6 0 8 12 6 26 -4 20 -2 24 10 20 9 -3 20 -6 25 -6
6 0 8 -4 4 -10 -3 -5 -12 -7 -20 -3 -11 4 -13 1 -9 -11 3 -9 9 -14 13 -12 3 2
7 -7 7 -20 2 -23 1 -24 -12 -7 -7 10 -14 13 -14 7 0 -6 9 -19 21 -30 20 -18
46 -19 545 -22 376 -2 524 0 524 8 0 6 -5 8 -12 4 -7 -5 -9 -2 -6 8 4 8 -2 33
-12 56 -10 22 -15 43 -12 47 4 4 -6 1 -21 -6 -17 -7 -23 -15 -16 -19 7 -5 6
-9 -4 -13 -9 -3 -18 1 -21 9 -4 9 3 18 18 24 27 10 40 36 24 46 -7 5 -8 2 -3
-6 5 -8 3 -11 -6 -8 -8 3 -15 11 -15 19 -1 8 -3 19 -4 24 -1 6 -2 14 -1 18 1
5 -3 6 -9 2 -6 -3 -8 -10 -5 -15 8 -12 -29 -22 -51 -13 -16 6 -17 4 -7 -9 13
-15 8 -28 -9 -28 -7 0 -7 31 1 90 1 2 6 -1 13 -8 14 -14 48 -16 48 -3 0 5 -8
8 -17 7 -10 0 -18 4 -18 11 0 6 -4 15 -9 20 -5 5 -6 3 -2 -5 9 -15 -20 -16
-30 0 -5 7 -3 8 6 3 9 -5 11 -4 6 3 -10 16 -31 15 -46 -3 -7 -8 -18 -15 -24
-15 -6 0 -3 5 7 11 17 10 15 29 -4 29 -6 0 -7 -4 -4 -10 7 -11 -36 -24 -62
-17 -10 3 -4 5 15 6 17 0 32 6 32 11 0 7 -91 9 -267 8 -248 -3 -268 -4 -267
-21 2 -21 -3 -21 -22 -3 -11 11 -11 16 -1 19 7 3 6 6 -5 6 -9 1 -19 7 -21 14
-4 9 -6 9 -6 -1 -1 -7 3 -21 8 -31 8 -15 5 -17 -23 -17 -31 1 -32 2 -33 46 0
42 9 60 32 60 6 0 3 -5 -5 -10 -13 -9 -13 -11 0 -20 23 -15 28 -12 23 18 -9
60 -14 71 -31 75 -15 4 -15 5 1 6 20 1 20 -1 5 139 -1 12 -9 22 -17 22 -14 0
-14 1 -1 10 13 9 13 11 0 20 -10 6 -11 10 -2 10 7 0 12 14 12 38 0 27 -3 33
-10 22 -13 -21 -13 -3 1 22 6 11 7 18 2 15 -4 -3 -9 38 -10 90 -1 52 -6 100
-11 106 -5 7 -8 33 -7 59 2 36 0 45 -11 41 -8 -3 -14 -1 -14 5 0 6 6 13 13 15
9 4 9 6 -1 6 -7 1 -10 6 -6 13 4 7 3 8 -4 4 -7 -4 -12 -15 -13 -24 0 -14 -2
-13 -9 3 -8 19 -9 19 -9 -1 -1 -12 6 -24 14 -28 8 -3 15 -11 14 -18 0 -10 -2
-10 -6 0 -4 10 -8 9 -18 -4 -10 -14 -12 -8 -11 39 0 32 4 57 8 57 4 0 8 -5 8
-11 0 -5 5 -7 10 -4 8 5 7 12 -2 22 -7 9 -11 17 -8 19 3 1 1 6 -4 11 -6 5 -6
2 -1 -7 5 -8 4 -12 0 -7 -14 12 -15 38 -2 30 9 -5 9 -3 0 8 -6 8 -11 16 -11
19 -1 3 -5 18 -11 34 -10 25 -13 27 -28 15 -15 -13 -15 -12 -3 11 12 22 11 24
-2 13 -12 -10 -15 -10 -15 2 0 8 6 15 14 15 11 0 11 6 -2 30 -9 17 -12 30 -8
30 5 0 -1 7 -11 15 -11 8 -14 15 -8 15 9 0 9 5 2 18 -5 9 -19 38 -30 65 -17
42 -40 63 -40 36 0 -5 3 -8 8 -6 17 11 11 -69 -8 -98 -19 -28 -20 -29 -20 -7
0 14 4 20 10 17 7 -4 9 2 5 17 -13 55 -13 115 1 115 7 0 11 -4 8 -9 -3 -4 0
-8 5 -8 17 0 13 18 -5 28 -24 13 -28 67 -7 83 12 10 15 10 9 2 -9 -16 6 -17
22 -1 8 8 15 8 25 -1 15 -12 213 -15 232 -3 6 4 28 7 51 7 32 1 40 -3 41 -17
2 -16 0 -17 -13 -3 -18 18 -44 20 -44 4 0 -8 -5 -8 -15 1 -11 9 -15 9 -15 1 0
-6 6 -14 14 -17 8 -3 13 -11 10 -19 -3 -7 2 -19 10 -28 8 -8 12 -17 9 -21 -4
-3 0 -6 7 -6 7 0 11 -3 8 -6 -4 -3 8 -31 24 -62 17 -31 39 -73 49 -92 20 -41
53 -62 89 -58 17 2 25 -2 26 -15 1 -12 0 -13 -3 -2 -7 23 -23 18 -20 -6 1 -12
-3 -24 -10 -26 -7 -3 -9 3 -6 16 3 12 1 21 -5 21 -6 0 -18 3 -26 6 -12 5 -15
2 -10 -10 3 -9 10 -13 15 -10 5 3 6 -1 4 -9 -3 -7 8 -25 25 -40 16 -15 30 -23
30 -18 0 5 7 12 16 15 11 4 14 1 9 -13 -5 -15 -1 -18 20 -13 14 2 23 7 20 10
-2 3 4 11 15 19 19 14 29 40 11 29 -5 -4 -7 4 -3 16 5 20 7 19 19 -12 l13 -35
-4 35 c-5 42 14 76 32 58 20 -20 26 0 12 44 l-14 43 -6 -30 c-4 -25 -7 -27
-13 -12 -4 10 -2 27 3 37 7 13 7 21 0 25 -5 3 -10 0 -10 -8 0 -8 -6 -17 -14
-20 -12 -5 -12 -2 -1 20 12 23 11 31 -11 74 -13 26 -36 60 -51 75 -16 15 -20
22 -10 15 23 -18 21 -2 -4 29 -15 17 -19 19 -15 7 4 -11 2 -16 -5 -11 -6 3 -8
15 -5 27 5 22 -14 66 -38 86 -9 7 -13 18 -9 24 4 7 0 8 -12 3 -15 -5 -16 -4
-6 8 10 12 10 20 -3 38 l-16 22 0 -22 c0 -15 4 -21 12 -16 7 4 8 3 4 -5 -9
-14 -26 -5 -26 15 0 8 -4 13 -9 9 -5 -3 -13 0 -17 6 -4 8 -3 9 4 5 7 -4 12 -2
12 3 0 6 -6 11 -12 11 -9 0 -8 4 2 10 8 5 10 10 5 10 -12 0 -45 -36 -39 -43 2
-2 -7 -3 -21 -3 -27 2 -53 22 -41 33 4 4 16 2 27 -5 22 -14 43 -7 33 10 -5 7
-2 8 6 3 8 -5 11 -3 8 6 -3 8 -15 13 -29 11 -19 -2 -21 -1 -9 7 8 6 13 11 10
12 -3 0 -12 2 -20 4 -57 15 -65 16 -45 6 18 -9 17 -10 -7 -8 -15 1 -24 5 -22
9 3 4 -1 8 -10 8 -8 0 -23 3 -33 6 -10 3 -7 -2 7 -10 14 -8 20 -15 14 -16 -5
0 -19 7 -30 15 -16 12 -70 14 -314 15 -260 0 -298 -2 -319 -17 -14 -9 -21 -11
-17 -5 9 16 -7 15 -22 0 -9 -9 -12 -9 -12 1 0 11 -3 11 -15 1 -12 -10 -15 -10
-15 0 0 10 -3 10 -15 0 -8 -7 -22 -10 -30 -6 -17 6 -65 -13 -65 -26 0 -5 -4
-6 -10 -3 -5 3 -10 1 -10 -6 0 -7 -3 -9 -6 -6 -8 8 -144 -134 -138 -144 2 -4
-1 -9 -7 -11 -5 -2 -7 -11 -4 -21 4 -9 11 -15 15 -12 5 3 11 2 14 -3 3 -5 -9
-8 -27 -7 -34 2 -60 -11 -51 -26 3 -5 0 -8 -7 -7 -6 2 -13 -2 -16 -9 -3 -7 3
-9 16 -6 21 5 29 -11 11 -22 -5 -3 -10 -2 -10 2 0 5 -9 9 -21 10 -14 1 -19 -3
-15 -13 3 -9 -1 -14 -12 -14 -15 0 -15 -2 -2 -10 12 -8 12 -10 -5 -10 -13 0
-33 -19 -54 -50 -28 -42 -31 -52 -20 -66 11 -14 14 -13 24 6 10 19 13 20 25 5
10 -12 11 -18 1 -28 -10 -9 -11 -8 -6 6 4 9 3 17 -3 17 -5 0 -13 -7 -16 -16
-3 -8 -11 -12 -16 -9 -6 4 -17 1 -25 -5 -9 -8 -15 -8 -15 -2 0 6 6 13 13 15 9
4 9 6 -1 6 -7 1 -20 -6 -28 -14 -12 -12 -45 -15 -159 -15 -91 0 -146 4 -150
11 -4 6 -14 8 -22 5 -8 -4 -11 -1 -8 5 4 6 13 8 21 5 12 -5 14 104 14 754 l-1
759 -144 -1 -145 0 0 -1947z m249 1855 c-5 -6 -9 7 -8 35 l1 44 8 -35 c5 -20
5 -39 -1 -44z m-213 6 c-11 -10 -14 3 -8 33 l7 30 3 -28 c2 -16 1 -31 -2 -35z
m104 48 c0 -5 -7 -7 -15 -4 -8 4 -15 8 -15 10 0 2 7 4 15 4 8 0 15 -4 15 -10z
m-60 -1906 c0 -1214 -3 -1853 -10 -1849 -11 7 -15 3687 -3 3698 3 4 8 7 10 7
2 0 3 -835 3 -1856z m187 1814 c-3 -8 -6 -5 -6 6 -1 11 2 17 5 13 3 -3 4 -12
1 -19z m-40 -10 c-3 -8 -6 -5 -6 6 -1 11 2 17 5 13 3 -3 4 -12 1 -19z m17
-658 c-5 -589 -4 -650 10 -650 9 0 16 -5 16 -10 0 -7 -6 -7 -20 0 -19 10 -20
21 -20 278 1 330 12 1032 16 1032 2 0 1 -292 -2 -650z m23 328 c-1 -57 -3 -11
-3 102 0 113 2 159 3 103 2 -57 2 -149 0 -205z m-46 -785 c-2 -97 -7 -170 -12
-167 -11 6 -12 1145 -1 1171 8 21 19 -748 13 -1004z m1554 217 c-3 -5 -11 -10
-16 -10 -6 0 -7 5 -4 10 3 6 11 10 16 10 6 0 7 -4 4 -10z m-1508 -72 c-2 -13
-4 -3 -4 22 0 25 2 35 4 23 2 -13 2 -33 0 -45z m760 41 c-9 -6 -15 -14 -12
-20 4 -5 -2 -9 -11 -9 -16 0 -16 1 1 20 10 11 23 20 29 20 6 0 3 -5 -7 -11z
m893 -3 c0 -3 -4 -8 -10 -11 -5 -3 -10 -1 -10 4 0 6 5 11 10 11 6 0 10 -2 10
-4z m-932 -35 c11 -7 10 -9 -3 -14 -9 -4 -13 -3 -10 3 3 6 1 10 -4 10 -6 0
-11 -5 -11 -12 0 -6 -3 -9 -6 -5 -7 7 4 27 14 27 4 0 13 -4 20 -9z m-53 -28
c-2 -10 -4 -22 -4 -26 -1 -5 -5 -5 -11 -2 -6 4 -9 -4 -7 -17 1 -17 -3 -22 -15
-20 -13 2 -18 -4 -19 -20 0 -22 -1 -22 -8 -3 -12 28 6 50 27 33 13 -11 14 -10
8 9 -5 15 -2 25 11 32 10 6 14 11 10 11 -5 0 -5 5 -2 10 9 15 14 12 10 -7z
m165 13 c0 -2 -7 -7 -16 -10 -8 -3 -12 -2 -9 4 6 10 25 14 25 6z m815 -25 c-3
-6 -11 -8 -17 -5 -6 4 -5 9 3 15 16 10 23 4 14 -10z m-865 -26 c0 -8 -7 -15
-15 -15 -13 0 -14 3 -3 15 16 18 18 18 18 0z m910 -25 c0 -19 -18 -19 -23 -1
-3 14 -1 18 9 14 8 -3 14 -9 14 -13z m-120 -20 c0 -5 -2 -10 -4 -10 -3 0 -8 5
-11 10 -3 6 -1 10 4 10 6 0 11 -4 11 -10z m265 -8 c-3 -3 -11 0 -18 7 -9 10
-8 11 6 5 10 -3 15 -9 12 -12z m-20 -13 c4 -6 13 -8 21 -5 8 3 11 0 8 -9 -3
-8 -13 -11 -21 -8 -10 4 -14 2 -10 -4 4 -6 1 -13 -6 -16 -8 -3 -14 1 -14 9 0
8 5 14 10 14 5 0 4 7 -3 15 -8 9 -9 15 -2 15 6 0 14 -5 17 -11z m-1145 -9 c0
-5 -2 -10 -4 -10 -3 0 -8 5 -11 10 -3 6 -1 10 4 10 6 0 11 -4 11 -10z m708
-17 c2 -8 -5 -13 -17 -13 -12 0 -21 6 -21 16 0 18 31 15 38 -3z m145 -30 c-13
-2 -35 -2 -50 0 -16 2 -5 4 22 4 28 0 40 -2 28 -4z m-968 -13 c-28 -12 -37
-12 -30 0 3 6 16 10 28 9 21 0 21 -1 2 -9z m1135 -25 c7 -9 14 -35 14 -58 2
-41 3 -42 35 -40 23 1 31 -3 27 -12 -3 -8 2 -19 10 -26 10 -8 12 -15 4 -23 -5
-5 -10 -19 -10 -30 0 -15 3 -17 9 -8 5 8 7 0 7 -22 -1 -27 -4 -32 -14 -24 -7
6 -11 17 -8 25 3 7 2 13 -3 13 -5 0 -16 12 -25 28 l-17 27 19 -22 20 -23 6 26
c8 31 -1 45 -14 24 -6 -8 -10 -10 -10 -4 0 7 -9 14 -21 17 -12 3 -18 10 -15
15 3 5 -1 15 -10 22 -12 11 -12 15 -2 22 10 6 10 10 -2 18 -10 6 -11 10 -3 10
16 0 5 31 -16 47 -9 7 -11 13 -5 13 6 0 17 -7 24 -15z m-20 -26 c0 -6 -4 -7
-10 -4 -5 3 -10 11 -10 16 0 6 5 7 10 4 6 -3 10 -11 10 -16z m233 -34 c2 -14
0 -25 -4 -25 -5 0 -9 12 -9 28 0 21 -2 24 -10 12 -8 -13 -11 -13 -26 2 -16 16
-16 17 6 11 18 -5 21 -3 15 8 -7 12 -6 12 7 1 9 -7 18 -24 21 -37z m-1173 -1
c0 -8 -4 -12 -10 -9 -5 3 -10 10 -10 16 0 5 5 9 10 9 6 0 10 -7 10 -16z m-230
-24 c0 -5 -5 -10 -11 -10 -5 0 -7 5 -4 10 3 6 8 10 11 10 2 0 4 -4 4 -10z
m-80 -25 c-8 -10 -9 -15 -1 -15 6 0 11 -5 11 -11 0 -8 -4 -8 -15 1 -11 9 -12
16 -2 30 6 11 13 17 16 15 2 -3 -2 -11 -9 -20z m1464 9 c3 -8 2 -12 -4 -9 -6
3 -10 10 -10 16 0 14 7 11 14 -7z m-1094 2 c0 -3 -4 -8 -10 -11 -5 -3 -10 -1
-10 4 0 6 5 11 10 11 6 0 10 -2 10 -4z m1160 0 c0 -2 -9 -6 -20 -9 -11 -3 -20
-1 -20 4 0 5 9 9 20 9 11 0 20 -2 20 -4z m-1242 -30 c18 -11 10 -29 -15 -32
-16 -3 -21 1 -19 20 1 24 10 27 34 12z m35 -3 c-3 -7 -6 -13 -8 -13 -2 0 -5 6
-8 13 -3 8 1 14 8 14 7 0 11 -6 8 -14z m1217 13 c0 -3 -4 -8 -10 -11 -5 -3
-10 -1 -10 4 0 6 5 11 10 11 6 0 10 -2 10 -4z m-2003 -28 c-3 -8 -6 -5 -6 6
-1 11 2 17 5 13 3 -3 4 -12 1 -19z m424 -5 c-12 -20 -14 -14 -5 12 4 9 9 14
11 11 3 -2 0 -13 -6 -23z m-404 -15 c-3 -7 -5 -2 -5 12 0 14 2 19 5 13 2 -7 2
-19 0 -25z m842 -34 c3 3 7 -4 7 -14 0 -10 -4 -16 -8 -14 -4 3 -8 0 -8 -5 0
-6 -5 -11 -11 -11 -5 0 -8 4 -5 9 3 5 -1 14 -9 21 -20 16 -19 30 3 46 15 11
17 10 20 -12 2 -13 7 -22 11 -20z m-340 19 c0 -11 -3 -13 -6 -5 -2 6 -10 9
-15 6 -7 -4 -8 -2 -4 4 11 18 26 14 25 -5z m894 -2 c3 -13 1 -18 -9 -14 -7 2
-10 11 -7 19 7 19 10 18 16 -5z m497 -1 c0 -5 -5 -10 -11 -10 -5 0 -7 5 -4 10
3 6 8 10 11 10 2 0 4 -4 4 -10z m-1235 -30 c5 9 4 11 -3 6 -7 -4 -12 -3 -12 3
0 5 9 9 20 8 26 -2 25 -12 -1 -31 -14 -9 -18 -19 -13 -28 6 -10 5 -11 -8 -1
-8 7 -17 10 -20 8 -5 -5 -4 13 1 49 0 6 7 2 14 -9 11 -14 16 -15 22 -5z m1275
0 c0 -13 7 -20 20 -20 11 0 20 -4 20 -9 0 -12 -27 -8 -42 7 -15 15 -19 42 -7
42 5 0 9 -9 9 -20z m-1632 -7 c-15 -2 -42 -2 -60 0 -18 2 -6 4 27 4 33 0 48
-2 33 -4z m1088 -13 c0 -11 -4 -20 -8 -20 -10 0 -11 24 -1 33 9 9 9 10 9 -13z
m608 4 c8 -22 7 -34 -3 -34 -5 0 -11 11 -13 25 -6 28 6 34 16 9z m-1624 -4 c0
-5 -4 -10 -10 -10 -5 0 -10 5 -10 10 0 6 5 10 10 10 6 0 10 -4 10 -10z m194
-48 c-6 -8 -44 20 -39 28 3 5 14 2 24 -8 10 -9 17 -18 15 -20z m866 8 c8 -15
8 -18 -3 -14 -8 3 -14 11 -14 19 0 20 4 19 17 -5z m-13 -35 c0 -25 -20 -11
-28 19 -7 26 -7 27 10 12 10 -9 18 -23 18 -31z m-864 10 c19 7 38 -10 31 -28
-3 -9 -11 -17 -16 -17 -6 0 -5 6 2 15 10 12 10 15 -4 15 -9 0 -16 -6 -17 -12
0 -15 -18 21 -18 37 1 6 3 5 5 -2 3 -7 11 -10 17 -8z m798 -18 c-1 -4 -1 -14
-1 -22 0 -8 -4 -15 -10 -15 -5 0 -10 12 -10 26 0 14 5 24 11 22 6 -2 10 -7 10
-11z m526 -39 c-3 -8 -6 -5 -6 6 -1 11 2 17 5 13 3 -3 4 -12 1 -19z m-1323 3
c3 -5 -1 -14 -8 -20 -12 -10 -14 -9 -11 6 2 10 4 19 4 21 2 5 10 2 15 -7z
m-74 -11 c0 -5 -4 -10 -10 -10 -5 0 -10 5 -10 10 0 6 5 10 10 10 6 0 10 -4 10
-10z m37 -5 c0 -8 -4 -15 -9 -15 -4 0 -8 7 -8 15 0 8 4 15 8 15 5 0 9 -7 9
-15z m391 1 c-7 -8 -17 -12 -22 -9 -4 3 -2 9 5 14 22 13 31 11 17 -5z m12 -21
c-7 -8 -17 -15 -23 -15 -6 0 -2 7 9 15 25 19 30 19 14 0z m-550 -14 c0 -5 14
-4 30 2 23 9 35 9 51 -1 11 -7 24 -10 29 -7 6 4 10 2 10 -3 0 -9 -104 -8 -130
2 -8 3 -44 7 -80 9 l-65 3 78 2 c42 1 77 -2 77 -7z m617 -10 c0 -11 -5 -17 -9
-15 -11 7 -10 34 1 34 6 0 9 -9 8 -19z m-63 -27 c3 -8 2 -12 -4 -9 -6 3 -10
10 -10 16 0 14 7 11 14 -7z m-749 -2 c-8 -9 -74 -12 -78 -5 -3 5 15 8 39 9 24
0 42 -2 39 -4z m142 2 c-3 -3 -12 -4 -19 -1 -8 3 -5 6 6 6 11 1 17 -2 13 -5z
m153 -4 c0 -5 -2 -10 -4 -10 -3 0 -8 5 -11 10 -3 6 -1 10 4 10 6 0 11 -4 11
-10z m-153 -16 c-3 -3 -12 -4 -19 -1 -8 3 -5 6 6 6 11 1 17 -2 13 -5z m66 -1
c-7 -2 -21 -2 -30 0 -10 3 -4 5 12 5 17 0 24 -2 18 -5z m-383 -69 l-10 -29 4
28 c2 15 -1 30 -5 33 -5 3 -10 -5 -10 -18 -1 -18 -2 -19 -6 -5 -3 10 1 25 8
33 19 23 31 -5 19 -42z m343 49 c-7 -2 -19 -2 -25 0 -7 3 -2 5 12 5 14 0 19
-2 13 -5z m658 -40 c-10 -17 -10 -16 -11 3 0 23 13 41 18 25 2 -6 -1 -18 -7
-28z m-984 -125 c-2 -18 -4 -4 -4 32 0 36 2 50 4 33 2 -18 2 -48 0 -65z m-19
-856 c1 -504 -1 -929 -5 -944 -10 -34 -17 1644 -8 1770 4 50 8 92 8 92 1 0 3
-413 5 -918z m-26 -4 c-2 -570 -7 -917 -13 -923 -6 -6 -8 305 -6 870 4 735 8
965 21 965 0 0 0 -411 -2 -912z m1030 905 c-10 -4 -10 -8 -1 -19 14 -17 -2
-19 -19 -2 -9 9 -12 9 -12 1 0 -7 4 -15 10 -18 5 -3 15 -16 21 -28 l11 -22
-21 22 c-12 12 -25 33 -30 45 -8 21 -6 23 23 24 17 1 25 -1 18 -3z m-2 -94
c12 -8 10 -9 -7 -4 -14 4 -23 2 -23 -4 0 -6 5 -11 10 -11 6 0 10 -5 10 -11 0
-8 -5 -8 -15 1 -32 27 -10 53 25 29z m510 -13 c0 -3 -4 -8 -10 -11 -5 -3 -10
-1 -10 4 0 6 5 11 10 11 6 0 10 -2 10 -4z m-230 -72 c0 -8 5 -14 12 -14 6 0 8
-3 5 -7 -4 -3 -16 3 -27 15 -24 25 -25 33 -5 26 8 -4 15 -12 15 -20z m-309
-37 l-23 -22 17 28 c10 15 20 25 23 22 3 -3 -5 -16 -17 -28z m-51 8 c-9 -10
-9 -15 -1 -15 6 0 11 -8 11 -17 0 -15 -2 -16 -10 -3 -8 12 -10 11 -10 -7 0
-13 6 -23 13 -24 10 0 10 -2 0 -6 -7 -2 -13 -10 -13 -17 0 -7 -6 -13 -14 -13
-8 0 -12 6 -9 14 3 7 9 13 15 13 5 0 6 5 3 10 -4 6 -11 7 -17 4 -5 -4 -2 5 7
20 10 14 14 26 10 26 -4 0 -2 7 5 15 7 8 15 15 17 15 3 0 0 -7 -7 -15z m75
-35 c3 -6 -1 -7 -9 -4 -18 7 -21 14 -7 14 6 0 13 -4 16 -10z m212 -27 c-3 -3
-13 1 -21 10 -8 8 -12 17 -9 20 3 3 12 -1 20 -9 9 -8 13 -18 10 -21z m21 6
c-3 -8 -7 -3 -11 10 -4 17 -3 21 5 13 5 -5 8 -16 6 -23z m301 -41 c-1 -47 -3
-57 -9 -38 -12 36 -12 100 0 100 6 0 10 -27 9 -62z m-559 6 c0 -8 -4 -12 -10
-9 -5 3 -10 10 -10 16 0 5 5 9 10 9 6 0 10 -7 10 -16z m607 -16 c-3 -8 -6 -5
-6 6 -1 11 2 17 5 13 3 -3 4 -12 1 -19z m-630 -20 c-3 -8 -6 -5 -6 6 -1 11 2
17 5 13 3 -3 4 -12 1 -19z m-12 -35 c-2 -10 -4 -22 -4 -27 -1 -6 -6 -5 -13 2
-8 8 -8 15 2 27 16 19 19 19 15 -2z m75 -4 c0 -11 -4 -17 -10 -14 -5 3 -10 13
-10 21 0 8 5 14 10 14 6 0 10 -9 10 -21z m537 -1 c-3 -8 -6 -5 -6 6 -1 11 2
17 5 13 3 -3 4 -12 1 -19z m38 -18 c3 -5 1 -10 -4 -10 -6 0 -11 5 -11 10 0 6
2 10 4 10 3 0 8 -4 11 -10z m-445 -5 c0 -2 -10 -9 -22 -15 -22 -11 -22 -10 -4
4 21 17 26 19 26 11z m357 -27 c-3 -7 -5 -2 -5 12 0 14 2 19 5 13 2 -7 2 -19
0 -25z m-682 2 c-8 -13 8 -13 21 0 8 8 11 3 10 -16 -2 -20 -8 -28 -24 -29 -11
-1 -23 4 -26 11 -3 8 3 10 17 7 20 -4 20 -3 4 7 -15 10 -16 30 -1 30 3 0 2 -4
-1 -10z m779 -6 c3 -8 2 -12 -4 -9 -6 3 -10 10 -10 16 0 14 7 11 14 -7z m-500
-19 c-4 15 -1 13 10 -5 20 -32 20 -50 1 -50 -8 0 -15 5 -15 11 0 5 5 7 10 4 6
-3 10 -4 10 0 0 3 -11 10 -25 15 -17 6 -23 14 -19 25 6 14 8 13 20 -2 13 -17
14 -17 8 2z m483 -17 c-3 -8 -6 -5 -6 6 -1 11 2 17 5 13 3 -3 4 -12 1 -19z m2
-93 c5 2 14 -2 21 -10 9 -10 9 -15 1 -15 -6 0 -11 5 -11 11 0 5 -4 8 -10 4 -5
-3 -6 -13 -3 -23 4 -12 3 -14 -5 -7 -6 6 -13 30 -16 55 -6 42 -5 43 4 12 6
-18 15 -30 19 -27z m21 51 c0 -2 -7 -7 -16 -10 -8 -3 -12 -2 -9 4 6 10 25 14
25 6z m-830 -45 c0 -6 -8 -16 -19 -23 -10 -7 -20 -22 -23 -33 -2 -12 -6 -16
-10 -9 -4 6 3 25 15 42 22 31 37 41 37 23z m-17 -61 c3 -11 1 -18 -4 -14 -5 3
-9 12 -9 20 0 20 7 17 13 -6z m287 -34 c-15 -15 -33 4 -19 20 10 12 14 12 20
2 5 -7 4 -17 -1 -22z m-220 -16 c-8 -5 -18 -6 -24 -3 -5 4 -1 10 10 13 24 9
34 2 14 -10z m887 -35 c0 -8 -4 -15 -9 -15 -4 0 -8 7 -8 15 0 8 4 15 8 15 5 0
9 -7 9 -15z m142 -10 c8 -8 -113 7 -122 15 -4 4 20 3 54 -2 35 -4 65 -11 68
-13z m34 18 c-7 -2 -19 -2 -25 0 -7 3 -2 5 12 5 14 0 19 -2 13 -5z m194 1 c-3
-3 -12 -4 -19 -1 -8 3 -5 6 6 6 11 1 17 -2 13 -5z m-1307 -12 c0 -5 -7 -9 -15
-9 -8 0 -15 4 -15 9 0 4 7 8 15 8 8 0 15 -4 15 -8z m200 -23 c0 -5 -4 -9 -8
-9 -5 0 -9 7 -9 15 0 8 4 12 9 9 4 -3 8 -9 8 -15z m-285 -17 c-2 -9 -4 -19 -4
-21 -1 -3 -6 0 -12 6 -13 13 -4 47 10 39 5 -4 8 -14 6 -24z m300 -12 c3 -5 1
-10 -4 -10 -6 0 -11 5 -11 10 0 6 2 10 4 10 3 0 8 -4 11 -10z m-75 -4 c0 -2
-6 -9 -14 -15 -11 -9 -16 -9 -22 0 -4 7 -3 9 4 5 6 -3 13 -2 17 4 6 10 15 14
15 6z m-256 -37 c-3 -5 -11 -6 -17 -2 -7 4 -6 0 2 -10 12 -15 11 -17 -3 -17
-19 0 -21 21 -4 38 13 13 31 6 22 -9z m323 15 c-3 -3 -12 -4 -19 -1 -8 3 -5 6
6 6 11 1 17 -2 13 -5z m513 -4 c0 -5 -4 -10 -10 -10 -5 0 -10 5 -10 10 0 6 5
10 10 10 6 0 10 -4 10 -10z m-107 -30 c-3 -12 -8 -19 -11 -16 -5 6 5 36 12 36
2 0 2 -9 -1 -20z m24 -9 c0 -11 -5 -18 -9 -15 -4 3 -5 11 -1 19 7 21 12 19 10
-4z m-527 5 c0 -11 -19 -15 -25 -6 -3 5 1 10 9 10 9 0 16 -2 16 -4z m-192 -38
c-2 -6 -13 -12 -24 -14 -19 -3 -19 -3 0 12 24 17 29 18 24 2z m225 -43 c-10
-8 -20 -11 -23 -9 -2 3 2 9 10 14 8 5 12 12 8 15 -3 3 -13 -1 -22 -10 -19 -20
-20 -15 -4 21 l12 26 18 -22 c17 -22 17 -23 1 -35z m-314 -15 c4 -3 -1 -12
-10 -22 -16 -15 -17 -15 -22 3 -3 10 -1 17 4 13 5 -3 10 7 10 23 1 21 3 23 6
8 3 -11 8 -22 12 -25z m68 8 c-3 -8 -6 -5 -6 6 -1 11 2 17 5 13 3 -3 4 -12 1
-19z m835 -29 c5 -3 -5 -6 -22 -6 -32 0 -38 10 -17 31 10 12 13 11 21 -3 5 -9
13 -19 18 -22z m-631 -47 c-6 -2 -8 -9 -5 -14 5 -7 2 -8 -5 -3 -9 5 -10 10 -2
18 14 14 14 30 1 22 -12 -7 -12 -3 -3 21 6 15 8 13 16 -11 7 -21 7 -30 -2 -33z
m-201 18 c0 -13 -6 -20 -17 -19 -11 0 -13 3 -5 6 6 2 12 11 12 19 0 8 2 14 5
14 3 0 5 -9 5 -20z m-653 -672 c-1 -128 -2 -26 -2 227 0 253 1 358 2 233 2
-125 2 -332 0 -460z m600 615 c0 -7 -6 -13 -14 -13 -7 0 -13 6 -13 13 0 8 6
14 13 14 8 0 14 -6 14 -14z m199 -28 c1 -8 -3 -19 -10 -24 -10 -8 -11 -3 -8
20 4 30 14 32 18 4z m-35 -12 c-12 -20 -14 -14 -5 12 4 9 9 14 11 11 3 -2 0
-13 -6 -23z m-31 -33 c0 -20 -2 -22 -10 -10 -8 12 -10 12 -10 1 0 -18 -13 -6
-16 14 -1 8 2 15 7 15 5 0 8 3 8 8 -3 19 2 25 11 12 5 -8 10 -26 10 -40z
m-225 22 c-3 -3 -11 0 -18 7 -9 10 -8 11 6 5 10 -3 15 -9 12 -12z m5 -16 c0
-3 -4 -8 -10 -11 -5 -3 -10 -1 -10 4 0 6 5 11 10 11 6 0 10 -2 10 -4z m280
-36 c0 -5 -9 -8 -19 -7 -15 1 -17 4 -9 14 11 13 28 9 28 -7z m-315 -61 c11
-16 1 -19 -13 -3 -7 8 -8 14 -3 14 5 0 13 -5 16 -11z m225 -23 c-7 -7 -13 -7
-20 0 -6 6 -3 10 10 10 13 0 16 -4 10 -10z m20 -24 c-13 -10 -22 -29 -22 -48
-1 -17 -6 -31 -12 -31 -23 0 -11 52 19 84 17 17 32 27 33 22 2 -5 -6 -17 -18
-27z m-341 -85 c-2 -1 -13 -9 -24 -17 -19 -14 -19 -14 -6 3 7 9 18 17 24 17 6
0 8 -1 6 -3z m316 -17 c-3 -5 -12 -10 -18 -10 -7 0 -6 4 3 10 19 12 23 12 15
0z m-250 -10 c3 -5 1 -10 -4 -10 -6 0 -11 5 -11 10 0 6 2 10 4 10 3 0 8 -4 11
-10z m-678 -192 c-2 -35 -3 -7 -3 62 0 69 1 97 3 63 2 -35 2 -91 0 -125z m763
178 c0 -3 -4 -8 -10 -11 -5 -3 -10 -1 -10 4 0 6 5 11 10 11 6 0 10 -2 10 -4z
m93 -7 c8 6 17 4 26 -6 12 -13 11 -14 -9 -8 -14 4 -20 3 -16 -3 3 -5 -7 -14
-22 -20 -36 -13 -74 -13 -66 0 3 5 17 8 31 5 20 -4 24 -1 20 14 -3 11 -1 17 4
13 5 -3 9 1 10 8 0 10 2 11 6 0 3 -8 9 -10 16 -3z m-808 -519 c-3 -5 -11 -10
-16 -10 -6 0 -7 5 -4 10 3 6 11 10 16 10 6 0 7 -4 4 -10z m179 -5 c-4 -8 -11
-12 -16 -9 -6 4 -5 10 3 15 19 12 19 11 13 -6z m-224 -46 c0 -5 -7 -9 -15 -9
-9 0 -12 6 -9 15 6 15 24 11 24 -6z m68 5 c-10 -9 -58 -12 -52 -3 3 5 17 9 31
9 15 0 24 -3 21 -6z"/>
<path d="M3155 2999 c-4 -6 -5 -12 -2 -15 2 -3 7 2 10 11 7 17 1 20 -8 4z"/>
<path d="M2106 2977 c3 -10 9 -15 12 -12 3 3 0 11 -7 18 -10 9 -11 8 -5 -6z"/>
<path d="M2190 2916 c0 -2 8 -10 18 -17 15 -13 16 -12 3 4 -13 16 -21 21 -21
13z"/>
<path d="M2010 2890 c0 -5 5 -10 11 -10 5 0 7 5 4 10 -3 6 -8 10 -11 10 -2 0
-4 -4 -4 -10z"/>
<path d="M2118 3994 c-3 -2 -24 -6 -47 -8 -25 -3 -52 -13 -65 -25 -12 -12 -25
-19 -28 -16 -8 9 -49 -46 -42 -56 3 -5 2 -8 -3 -7 -4 2 -9 -1 -10 -6 -1 -5 -7
-12 -13 -16 -7 -4 -14 -19 -15 -33 -2 -13 -8 -33 -13 -44 -9 -16 -10 -28 -3
-62 1 -2 8 2 16 9 8 7 15 11 16 9 7 -31 5 -109 -3 -109 -6 0 -8 7 -5 15 4 8 2
17 -3 20 -7 4 -6 13 0 25 11 21 1 33 -19 20 -9 -5 -11 -14 -6 -26 4 -11 10
-28 12 -38 11 -58 92 -142 109 -114 4 6 3 8 -4 4 -6 -3 -13 -3 -15 1 -3 5 19
8 49 8 30 0 49 -2 44 -3 -7 -3 -6 -10 2 -20 11 -14 10 -15 -7 -8 -41 17 -62
18 -68 3 -4 -11 6 -20 34 -31 49 -20 63 -20 55 -1 -3 9 0 15 8 15 8 0 23 3 33
6 10 3 8 -1 -6 -9 -30 -18 -19 -25 44 -24 59 0 105 18 145 56 24 22 27 30 17
41 -9 10 -9 11 0 6 7 -4 21 -2 30 4 14 9 14 10 2 7 -9 -3 -22 -1 -30 4 -10 6
-10 9 -1 9 6 0 12 5 12 11 0 5 -4 7 -10 4 -6 -3 -7 1 -4 9 3 9 12 16 19 16 7
0 16 -7 19 -16 3 -8 2 -12 -4 -9 -6 3 -10 1 -10 -5 0 -20 24 -5 38 23 16 34
17 173 1 193 -6 8 -8 14 -3 14 5 0 4 4 -1 8 -6 4 -16 19 -24 34 -13 26 -15 26
-28 10 -10 -12 -16 -14 -19 -4 -3 6 -12 12 -19 12 -17 0 -35 31 -35 58 0 11
-7 23 -16 26 -26 10 -29 7 -8 -8 18 -14 17 -15 -11 -12 -16 2 -31 9 -33 17 -3
11 -1 11 8 -1 9 -12 11 -12 8 -1 -4 13 -80 26 -90 15z m-43 -24 c3 -6 -1 -7
-9 -4 -18 7 -21 14 -7 14 6 0 13 -4 16 -10z m110 -30 c-3 -5 -16 -8 -28 -6
-12 3 -25 5 -29 5 -4 1 -5 7 -2 15 3 8 13 12 25 9 12 -3 19 0 19 8 1 9 4 8 11
-4 5 -9 7 -22 4 -27z m-169 6 c-31 -28 -33 -36 -6 -31 11 2 22 0 25 -4 2 -5
-9 -7 -25 -6 -17 1 -30 -2 -30 -7 0 -5 -4 -7 -9 -4 -5 4 -11 0 -14 -6 -3 -7
-4 -3 -4 8 1 15 6 20 17 16 8 -3 12 -2 8 2 -4 5 5 19 20 32 35 31 51 31 18 0z
m64 -31 c0 -8 -7 -15 -15 -15 -16 0 -20 12 -8 23 11 12 23 8 23 -8z m182 -12
c7 -6 20 -13 28 -15 8 -3 -6 -5 -32 -4 -37 1 -46 4 -45 18 1 19 26 19 49 1z
m78 -64 c0 -5 -4 -9 -8 -9 -5 0 -9 7 -9 15 0 8 4 12 9 9 4 -3 8 -9 8 -15z
m-425 -9 c3 -5 1 -10 -4 -10 -6 0 -11 5 -11 10 0 6 2 10 4 10 3 0 8 -4 11 -10z
m430 -20 c3 -5 2 -10 -4 -10 -5 0 -13 5 -16 10 -3 6 -2 10 4 10 5 0 13 -4 16
-10z m40 0 c-3 -5 -12 -10 -18 -10 -7 0 -6 4 3 10 19 12 23 12 15 0z m-476
-46 c-14 -17 -29 -18 -29 -3 0 5 5 7 12 3 7 -5 9 -2 5 9 -4 11 -2 14 9 10 11
-4 12 -9 3 -19z m408 -10 c-3 -4 1 -13 9 -22 13 -12 13 -16 2 -23 -9 -6 -15
-2 -19 14 -6 22 -3 37 8 37 4 0 4 -3 0 -6z m70 -26 c-3 -8 -6 -5 -6 6 -1 11 2
17 5 13 3 -3 4 -12 1 -19z m-95 -54 c3 -3 4 -14 1 -25 -4 -15 -8 -17 -19 -8
-18 15 -18 39 -1 39 8 0 16 -3 19 -6z m-187 -124 c3 -5 1 -10 -4 -10 -6 0 -11
5 -11 10 0 6 2 10 4 10 3 0 8 -4 11 -10z m145 6 c0 -2 -13 -6 -30 -8 -16 -3
-30 -1 -30 4 0 4 14 8 30 8 17 0 30 -2 30 -4z m31 -26 c6 0 7 5 3 12 -4 7 -3
8 5 4 9 -6 9 -11 -1 -23 -8 -10 -14 -11 -16 -4 -2 6 -11 11 -20 11 -15 0 -15
2 -2 10 10 6 16 6 18 0 2 -6 8 -10 13 -10z m-21 -14 c0 -3 -4 -8 -10 -11 -5
-3 -10 -1 -10 4 0 6 5 11 10 11 6 0 10 -2 10 -4z m-200 -16 c0 -5 -4 -10 -9
-10 -6 0 -13 5 -16 10 -3 6 1 10 9 10 9 0 16 -4 16 -10z"/>
<path d="M2270 3945 c0 -14 16 -29 42 -38 16 -6 19 8 5 29 -10 17 -47 24 -47
9z m45 -23 c-3 -3 -11 0 -18 7 -9 10 -8 11 6 5 10 -3 15 -9 12 -12z"/>
<path d="M1940 3179 c0 -5 5 -7 10 -4 6 3 10 8 10 11 0 2 -4 4 -10 4 -5 0 -10
-5 -10 -11z"/>
<path d="M2742 2965 c0 -16 2 -22 5 -12 2 9 2 23 0 30 -3 6 -5 -1 -5 -18z"/>
<path d="M3397 2833 c-3 -5 -2 -22 0 -40 5 -30 6 -31 21 -16 9 9 17 23 19 32
3 22 -30 41 -40 24z m23 -13 c0 -5 -5 -10 -11 -10 -5 0 -7 5 -4 10 3 6 8 10
11 10 2 0 4 -4 4 -10z"/>
<path d="M3360 2760 c-8 -26 -7 -41 2 -32 6 6 8 16 5 24 -3 7 -6 11 -7 8z"/>
<path d="M2680 2234 c0 -8 5 -12 10 -9 6 4 8 11 5 16 -9 14 -15 11 -15 -7z"/>
<path d="M2971 1858 c-1 -18 6 -31 19 -38 25 -13 26 -2 3 16 -11 8 -13 13 -5
14 6 0 12 5 12 11 0 5 -4 8 -9 5 -5 -4 -12 0 -14 6 -3 7 -6 1 -6 -14z"/>
<path d="M3690 1761 c0 -10 24 -21 43 -21 7 0 3 7 -7 15 -22 17 -36 19 -36 6z"/>
</g>
</svg>
