<svg xmlns="http://www.w3.org/2000/svg" xmlns:xlink="http://www.w3.org/1999/xlink" width="1120" zoomAndPan="magnify" viewBox="0 0 840 839.999992" height="1120" preserveAspectRatio="xMidYMid meet" version="1.0"><path fill="#eff6ff" d="M 491.578125 146.628906 C 546.433594 241.640625 513.882812 363.132812 418.867188 417.988281 C 323.855469 472.84375 202.363281 440.289062 147.507812 345.277344 C 92.652344 250.265625 125.207031 128.773438 220.21875 73.917969 C 315.230469 19.0625 436.722656 51.613281 491.578125 146.628906 Z M 491.578125 146.628906 " fill-opacity="1" fill-rule="nonzero"/><path fill="#1e40af" d="M 202.605469 43.410156 C 90.761719 107.984375 52.394531 251.164062 116.96875 363.011719 C 174.3125 462.332031 293.628906 503.679688 397.960938 466.480469 C 406.167969 482.332031 570.921875 800.546875 571.191406 801.011719 C 579.261719 814.992188 608.917969 813 637.425781 796.542969 C 665.929688 780.085938 682.484375 755.398438 674.414062 741.417969 L 471.3125 424.128906 C 555.695312 352.375 579.546875 228.371094 522.203125 129.046875 C 457.628906 17.203125 314.449219 -21.160156 202.605469 43.410156 Z M 220.261719 73.996094 C 315.226562 19.167969 436.796875 51.742188 491.621094 146.707031 C 546.449219 241.667969 513.875 363.238281 418.910156 418.0625 C 323.949219 472.890625 202.378906 440.316406 147.554688 345.355469 C 92.726562 250.390625 125.300781 128.820312 220.261719 73.996094 Z M 220.261719 73.996094 " fill-opacity="1" fill-rule="nonzero"/><path fill="#eff6ff" d="M 220.261719 73.996094 C 133.792969 123.917969 99.109375 229.039062 134.980469 319.164062 C 168.761719 319.210938 203.039062 310.773438 234.378906 292.679688 C 320.847656 242.753906 355.464844 137.515625 319.59375 47.390625 C 285.8125 47.34375 251.605469 55.902344 220.265625 73.996094 Z M 220.261719 73.996094 " fill-opacity="1" fill-rule="nonzero"/></svg>