<svg xmlns="http://www.w3.org/2000/svg" xmlns:xlink="http://www.w3.org/1999/xlink" width="500" zoomAndPan="magnify" viewBox="0 0 375 374.999991" height="500" preserveAspectRatio="xMidYMid meet" version="1.0"><defs><g/><clipPath id="04ac9e3d8e"><path d="M 37.5 37.5 L 337.5 37.5 L 337.5 337.5 L 37.5 337.5 Z M 37.5 37.5 " clip-rule="nonzero"/></clipPath><clipPath id="a0d8311c70"><path d="M 187.5 37.5 C 104.65625 37.5 37.5 104.65625 37.5 187.5 C 37.5 270.34375 104.65625 337.5 187.5 337.5 C 270.34375 337.5 337.5 270.34375 337.5 187.5 C 337.5 104.65625 270.34375 37.5 187.5 37.5 Z M 187.5 37.5 " clip-rule="nonzero"/></clipPath><clipPath id="3843222d82"><path d="M 45.109375 45.109375 L 327.511719 45.109375 L 327.511719 327.511719 L 45.109375 327.511719 Z M 45.109375 45.109375 " clip-rule="nonzero"/></clipPath><clipPath id="32c5910bca"><path d="M 186.3125 45.109375 C 108.328125 45.109375 45.109375 108.328125 45.109375 186.3125 C 45.109375 264.292969 108.328125 327.511719 186.3125 327.511719 C 264.292969 327.511719 327.511719 264.292969 327.511719 186.3125 C 327.511719 108.328125 264.292969 45.109375 186.3125 45.109375 Z M 186.3125 45.109375 " clip-rule="nonzero"/></clipPath><clipPath id="65b595443e"><path d="M 45.109375 45.109375 L 327.507812 45.109375 L 327.507812 327.507812 L 45.109375 327.507812 Z M 45.109375 45.109375 " clip-rule="nonzero"/></clipPath><clipPath id="a632016543"><path d="M 186.308594 45.109375 C 108.328125 45.109375 45.109375 108.328125 45.109375 186.308594 C 45.109375 264.289062 108.328125 327.507812 186.308594 327.507812 C 264.289062 327.507812 327.507812 264.289062 327.507812 186.308594 C 327.507812 108.328125 264.289062 45.109375 186.308594 45.109375 Z M 186.308594 45.109375 " clip-rule="nonzero"/></clipPath><clipPath id="da47d2e634"><path d="M 99 157 L 165 157 L 165 234 L 99 234 Z M 99 157 " clip-rule="nonzero"/></clipPath><clipPath id="2a0ec92ea2"><path d="M 70.875 154.351562 L 148.539062 134.132812 L 174.046875 232.113281 L 96.386719 252.332031 Z M 70.875 154.351562 " clip-rule="nonzero"/></clipPath><clipPath id="ca5a1b641c"><path d="M 148.46875 134.148438 L 70.808594 154.367188 L 96.320312 252.351562 L 173.980469 232.132812 Z M 148.46875 134.148438 " clip-rule="nonzero"/></clipPath><clipPath id="843a8b8953"><path d="M 148.46875 134.148438 L 70.808594 154.367188 L 96.320312 252.351562 L 173.980469 232.132812 Z M 148.46875 134.148438 " clip-rule="nonzero"/></clipPath><clipPath id="45f3e45087"><path d="M 102 157 L 165 157 L 165 232 L 102 232 Z M 102 157 " clip-rule="nonzero"/></clipPath><clipPath id="53ae223dc5"><path d="M 70.875 154.351562 L 148.539062 134.132812 L 174.046875 232.113281 L 96.386719 252.332031 Z M 70.875 154.351562 " clip-rule="nonzero"/></clipPath><clipPath id="d878d0e492"><path d="M 148.46875 134.148438 L 70.808594 154.367188 L 96.320312 252.351562 L 173.980469 232.132812 Z M 148.46875 134.148438 " clip-rule="nonzero"/></clipPath><clipPath id="be1a8659f1"><path d="M 148.46875 134.148438 L 70.808594 154.367188 L 96.320312 252.351562 L 173.980469 232.132812 Z M 148.46875 134.148438 " clip-rule="nonzero"/></clipPath><clipPath id="b6c332521b"><path d="M 94 148 L 114 148 L 114 169 L 94 169 Z M 94 148 " clip-rule="nonzero"/></clipPath><clipPath id="18de225b9c"><path d="M 70.875 154.351562 L 148.539062 134.132812 L 174.046875 232.113281 L 96.386719 252.332031 Z M 70.875 154.351562 " clip-rule="nonzero"/></clipPath><clipPath id="734eb55b42"><path d="M 148.46875 134.148438 L 70.808594 154.367188 L 96.320312 252.351562 L 173.980469 232.132812 Z M 148.46875 134.148438 " clip-rule="nonzero"/></clipPath><clipPath id="f767ed304b"><path d="M 148.46875 134.148438 L 70.808594 154.367188 L 96.320312 252.351562 L 173.980469 232.132812 Z M 148.46875 134.148438 " clip-rule="nonzero"/></clipPath><clipPath id="461413e20f"><path d="M 94 148 L 102 148 L 102 156 L 94 156 Z M 94 148 " clip-rule="nonzero"/></clipPath><clipPath id="c60d1852b9"><path d="M 70.875 154.351562 L 148.539062 134.132812 L 174.046875 232.113281 L 96.386719 252.332031 Z M 70.875 154.351562 " clip-rule="nonzero"/></clipPath><clipPath id="33b7254b20"><path d="M 148.46875 134.148438 L 70.808594 154.367188 L 96.320312 252.351562 L 173.980469 232.132812 Z M 148.46875 134.148438 " clip-rule="nonzero"/></clipPath><clipPath id="dbd6c47089"><path d="M 148.46875 134.148438 L 70.808594 154.367188 L 96.320312 252.351562 L 173.980469 232.132812 Z M 148.46875 134.148438 " clip-rule="nonzero"/></clipPath><clipPath id="ab3f81062d"><path d="M 99 164 L 105 164 L 105 169 L 99 169 Z M 99 164 " clip-rule="nonzero"/></clipPath><clipPath id="6676c856a9"><path d="M 70.875 154.351562 L 148.539062 134.132812 L 174.046875 232.113281 L 96.386719 252.332031 Z M 70.875 154.351562 " clip-rule="nonzero"/></clipPath><clipPath id="6696593748"><path d="M 148.46875 134.148438 L 70.808594 154.367188 L 96.320312 252.351562 L 173.980469 232.132812 Z M 148.46875 134.148438 " clip-rule="nonzero"/></clipPath><clipPath id="17aceff119"><path d="M 148.46875 134.148438 L 70.808594 154.367188 L 96.320312 252.351562 L 173.980469 232.132812 Z M 148.46875 134.148438 " clip-rule="nonzero"/></clipPath><clipPath id="2f06006c6a"><path d="M 102 164 L 105 164 L 105 167 L 102 167 Z M 102 164 " clip-rule="nonzero"/></clipPath><clipPath id="bc65ef88fa"><path d="M 70.875 154.351562 L 148.539062 134.132812 L 174.046875 232.113281 L 96.386719 252.332031 Z M 70.875 154.351562 " clip-rule="nonzero"/></clipPath><clipPath id="11cf529ca1"><path d="M 148.46875 134.148438 L 70.808594 154.367188 L 96.320312 252.351562 L 173.980469 232.132812 Z M 148.46875 134.148438 " clip-rule="nonzero"/></clipPath><clipPath id="a5b1b85409"><path d="M 148.46875 134.148438 L 70.808594 154.367188 L 96.320312 252.351562 L 173.980469 232.132812 Z M 148.46875 134.148438 " clip-rule="nonzero"/></clipPath><clipPath id="314537cc2c"><path d="M 96 154 L 105 154 L 105 169 L 96 169 Z M 96 154 " clip-rule="nonzero"/></clipPath><clipPath id="0f741d1a8e"><path d="M 70.875 154.351562 L 148.539062 134.132812 L 174.046875 232.113281 L 96.386719 252.332031 Z M 70.875 154.351562 " clip-rule="nonzero"/></clipPath><clipPath id="b220e39da7"><path d="M 148.46875 134.148438 L 70.808594 154.367188 L 96.320312 252.351562 L 173.980469 232.132812 Z M 148.46875 134.148438 " clip-rule="nonzero"/></clipPath><clipPath id="b0467d1028"><path d="M 148.46875 134.148438 L 70.808594 154.367188 L 96.320312 252.351562 L 173.980469 232.132812 Z M 148.46875 134.148438 " clip-rule="nonzero"/></clipPath><clipPath id="32e843b373"><path d="M 94 148 L 99 148 L 99 156 L 94 156 Z M 94 148 " clip-rule="nonzero"/></clipPath><clipPath id="90555634a2"><path d="M 70.875 154.351562 L 148.539062 134.132812 L 174.046875 232.113281 L 96.386719 252.332031 Z M 70.875 154.351562 " clip-rule="nonzero"/></clipPath><clipPath id="1d20d4e74d"><path d="M 148.46875 134.148438 L 70.808594 154.367188 L 96.320312 252.351562 L 173.980469 232.132812 Z M 148.46875 134.148438 " clip-rule="nonzero"/></clipPath><clipPath id="52fe588f3c"><path d="M 148.46875 134.148438 L 70.808594 154.367188 L 96.320312 252.351562 L 173.980469 232.132812 Z M 148.46875 134.148438 " clip-rule="nonzero"/></clipPath><clipPath id="594da1e10d"><path d="M 93 191 L 171 191 L 171 235 L 93 235 Z M 93 191 " clip-rule="nonzero"/></clipPath><clipPath id="95a588a09c"><path d="M 70.875 154.351562 L 148.539062 134.132812 L 174.046875 232.113281 L 96.386719 252.332031 Z M 70.875 154.351562 " clip-rule="nonzero"/></clipPath><clipPath id="37c977c122"><path d="M 148.46875 134.148438 L 70.808594 154.367188 L 96.320312 252.351562 L 173.980469 232.132812 Z M 148.46875 134.148438 " clip-rule="nonzero"/></clipPath><clipPath id="ae67facfa7"><path d="M 148.46875 134.148438 L 70.808594 154.367188 L 96.320312 252.351562 L 173.980469 232.132812 Z M 148.46875 134.148438 " clip-rule="nonzero"/></clipPath><clipPath id="f40369bc2d"><path d="M 95 191 L 171 191 L 171 232 L 95 232 Z M 95 191 " clip-rule="nonzero"/></clipPath><clipPath id="9d5779a81e"><path d="M 70.875 154.351562 L 148.539062 134.132812 L 174.046875 232.113281 L 96.386719 252.332031 Z M 70.875 154.351562 " clip-rule="nonzero"/></clipPath><clipPath id="8f5b820dd2"><path d="M 148.46875 134.148438 L 70.808594 154.367188 L 96.320312 252.351562 L 173.980469 232.132812 Z M 148.46875 134.148438 " clip-rule="nonzero"/></clipPath><clipPath id="e3b0429f29"><path d="M 148.46875 134.148438 L 70.808594 154.367188 L 96.320312 252.351562 L 173.980469 232.132812 Z M 148.46875 134.148438 " clip-rule="nonzero"/></clipPath><clipPath id="f462bfd966"><path d="M 80 191 L 100 191 L 100 206 L 80 206 Z M 80 191 " clip-rule="nonzero"/></clipPath><clipPath id="4bbdc0d84a"><path d="M 70.875 154.351562 L 148.539062 134.132812 L 174.046875 232.113281 L 96.386719 252.332031 Z M 70.875 154.351562 " clip-rule="nonzero"/></clipPath><clipPath id="6a539daf9c"><path d="M 148.46875 134.148438 L 70.808594 154.367188 L 96.320312 252.351562 L 173.980469 232.132812 Z M 148.46875 134.148438 " clip-rule="nonzero"/></clipPath><clipPath id="af33c0aa17"><path d="M 148.46875 134.148438 L 70.808594 154.367188 L 96.320312 252.351562 L 173.980469 232.132812 Z M 148.46875 134.148438 " clip-rule="nonzero"/></clipPath><clipPath id="7b260e3004"><path d="M 80 191 L 88 191 L 88 197 L 80 197 Z M 80 191 " clip-rule="nonzero"/></clipPath><clipPath id="51d44d0343"><path d="M 70.875 154.351562 L 148.539062 134.132812 L 174.046875 232.113281 L 96.386719 252.332031 Z M 70.875 154.351562 " clip-rule="nonzero"/></clipPath><clipPath id="ed717ab8cd"><path d="M 148.46875 134.148438 L 70.808594 154.367188 L 96.320312 252.351562 L 173.980469 232.132812 Z M 148.46875 134.148438 " clip-rule="nonzero"/></clipPath><clipPath id="81800e0e17"><path d="M 148.46875 134.148438 L 70.808594 154.367188 L 96.320312 252.351562 L 173.980469 232.132812 Z M 148.46875 134.148438 " clip-rule="nonzero"/></clipPath><clipPath id="ac5bb605c4"><path d="M 85 196 L 96 196 L 96 206 L 85 206 Z M 85 196 " clip-rule="nonzero"/></clipPath><clipPath id="1bdff5a65a"><path d="M 70.875 154.351562 L 148.539062 134.132812 L 174.046875 232.113281 L 96.386719 252.332031 Z M 70.875 154.351562 " clip-rule="nonzero"/></clipPath><clipPath id="b4ae80a712"><path d="M 148.46875 134.148438 L 70.808594 154.367188 L 96.320312 252.351562 L 173.980469 232.132812 Z M 148.46875 134.148438 " clip-rule="nonzero"/></clipPath><clipPath id="24573c601f"><path d="M 148.46875 134.148438 L 70.808594 154.367188 L 96.320312 252.351562 L 173.980469 232.132812 Z M 148.46875 134.148438 " clip-rule="nonzero"/></clipPath><clipPath id="d78074ab27"><path d="M 80 192 L 96 192 L 96 206 L 80 206 Z M 80 192 " clip-rule="nonzero"/></clipPath><clipPath id="a416d31cca"><path d="M 70.875 154.351562 L 148.539062 134.132812 L 174.046875 232.113281 L 96.386719 252.332031 Z M 70.875 154.351562 " clip-rule="nonzero"/></clipPath><clipPath id="4bb85e8e04"><path d="M 148.46875 134.148438 L 70.808594 154.367188 L 96.320312 252.351562 L 173.980469 232.132812 Z M 148.46875 134.148438 " clip-rule="nonzero"/></clipPath><clipPath id="f9b2dcca4e"><path d="M 148.46875 134.148438 L 70.808594 154.367188 L 96.320312 252.351562 L 173.980469 232.132812 Z M 148.46875 134.148438 " clip-rule="nonzero"/></clipPath><clipPath id="e624a3633a"><path d="M 80 192 L 87 192 L 87 197 L 80 197 Z M 80 192 " clip-rule="nonzero"/></clipPath><clipPath id="fabcf4a970"><path d="M 70.875 154.351562 L 148.539062 134.132812 L 174.046875 232.113281 L 96.386719 252.332031 Z M 70.875 154.351562 " clip-rule="nonzero"/></clipPath><clipPath id="f179e93eb4"><path d="M 148.46875 134.148438 L 70.808594 154.367188 L 96.320312 252.351562 L 173.980469 232.132812 Z M 148.46875 134.148438 " clip-rule="nonzero"/></clipPath><clipPath id="530b8f23d7"><path d="M 148.46875 134.148438 L 70.808594 154.367188 L 96.320312 252.351562 L 173.980469 232.132812 Z M 148.46875 134.148438 " clip-rule="nonzero"/></clipPath><clipPath id="41153fc3b3"><path d="M 188 142 L 297 142 L 297 251 L 188 251 Z M 188 142 " clip-rule="nonzero"/></clipPath><clipPath id="c830374eba"><path d="M 186.3125 237.875 L 283.894531 140.292969 L 298.746094 155.144531 L 201.164062 252.722656 Z M 186.3125 237.875 " clip-rule="nonzero"/></clipPath><clipPath id="020d0d3033"><path d="M 186.3125 237.875 L 283.894531 140.292969 L 298.746094 155.144531 L 201.164062 252.722656 Z M 186.3125 237.875 " clip-rule="nonzero"/></clipPath><clipPath id="dce73e6330"><path d="M 186.3125 237.875 L 283.894531 140.292969 L 298.746094 155.144531 L 201.164062 252.722656 Z M 186.3125 237.875 " clip-rule="nonzero"/></clipPath><clipPath id="36b4473dd7"><path d="M 189 143 L 287 143 L 287 241 L 189 241 Z M 189 143 " clip-rule="nonzero"/></clipPath><clipPath id="6ce41d556d"><path d="M 186.3125 237.875 L 283.894531 140.292969 L 298.746094 155.144531 L 201.164062 252.722656 Z M 186.3125 237.875 " clip-rule="nonzero"/></clipPath><clipPath id="aac55959fc"><path d="M 186.3125 237.875 L 283.894531 140.292969 L 298.746094 155.144531 L 201.164062 252.722656 Z M 186.3125 237.875 " clip-rule="nonzero"/></clipPath><clipPath id="8df9ab140f"><path d="M 186.3125 237.875 L 283.894531 140.292969 L 298.746094 155.144531 L 201.164062 252.722656 Z M 186.3125 237.875 " clip-rule="nonzero"/></clipPath><clipPath id="1a6ea67e61"><path d="M 122.386719 127.96875 L 252.886719 127.96875 L 252.886719 258.46875 L 122.386719 258.46875 Z M 122.386719 127.96875 " clip-rule="nonzero"/></clipPath></defs><rect x="-37.5" width="450" fill="#ffffff" y="-37.499999" height="449.999989" fill-opacity="1"/><rect x="-37.5" width="450" fill="#ffffff" y="-37.499999" height="449.999989" fill-opacity="1"/><g clip-path="url(#04ac9e3d8e)"><g clip-path="url(#a0d8311c70)"><path fill="#7e9eff" d="M 37.5 37.5 L 337.5 37.5 L 337.5 337.5 L 37.5 337.5 Z M 37.5 37.5 " fill-opacity="1" fill-rule="nonzero"/></g></g><g clip-path="url(#3843222d82)"><g clip-path="url(#32c5910bca)"><path fill="#7e9eff" d="M 45.109375 45.109375 L 327.511719 45.109375 L 327.511719 327.511719 L 45.109375 327.511719 Z M 45.109375 45.109375 " fill-opacity="1" fill-rule="nonzero"/></g></g><g clip-path="url(#65b595443e)"><g clip-path="url(#a632016543)"><path stroke-linecap="butt" transform="matrix(0.75, 0, 0, 0.75, 45.109389, 45.109384)" fill="none" stroke-linejoin="miter" d="M 188.265619 -0.0000123171 C 84.291654 -0.0000123171 -0.0000183171 84.29166 -0.0000183171 188.265625 C -0.0000183171 292.23959 84.291654 376.531262 188.265619 376.531262 C 292.239584 376.531262 376.531256 292.23959 376.531256 188.265625 C 376.531256 84.29166 292.239584 -0.0000123171 188.265619 -0.0000123171 Z M 188.265619 -0.0000123171 " stroke="#ffffff" stroke-width="12" stroke-opacity="1" stroke-miterlimit="4"/></g></g><g clip-path="url(#da47d2e634)"><g clip-path="url(#2a0ec92ea2)"><g clip-path="url(#ca5a1b641c)"><g clip-path="url(#843a8b8953)"><path fill="#32941d" d="M 150.832031 233.496094 L 164.214844 222.980469 L 113.152344 157.753906 L 99.765625 168.273438 L 150.832031 233.496094 " fill-opacity="1" fill-rule="nonzero"/></g></g></g></g><g clip-path="url(#45f3e45087)"><g clip-path="url(#53ae223dc5)"><g clip-path="url(#d878d0e492)"><g clip-path="url(#be1a8659f1)"><path fill="#3bb028" d="M 153.464844 231.425781 L 164.214844 222.980469 L 113.152344 157.753906 L 102.402344 166.203125 L 153.464844 231.425781 " fill-opacity="1" fill-rule="nonzero"/></g></g></g></g><g clip-path="url(#b6c332521b)"><g clip-path="url(#18de225b9c)"><g clip-path="url(#734eb55b42)"><g clip-path="url(#f767ed304b)"><path fill="#ead4a6" d="M 94.871094 148.210938 L 97.320312 158.242188 L 99.765625 168.273438 L 106.460938 163.015625 L 113.152344 157.753906 L 94.871094 148.210938 " fill-opacity="1" fill-rule="nonzero"/></g></g></g></g><g clip-path="url(#461413e20f)"><g clip-path="url(#c60d1852b9)"><g clip-path="url(#33b7254b20)"><g clip-path="url(#dbd6c47089)"><path fill="#32941d" d="M 94.871094 148.210938 L 101.117188 151.472656 C 100.804688 152.410156 100.230469 153.269531 99.394531 153.921875 C 98.542969 154.59375 97.542969 154.953125 96.53125 155.019531 L 94.871094 148.210938 " fill-opacity="1" fill-rule="nonzero"/></g></g></g></g><g clip-path="url(#ab3f81062d)"><g clip-path="url(#6676c856a9)"><g clip-path="url(#6696593748)"><g clip-path="url(#17aceff119)"><path fill="#ffffff" d="M 99.765625 168.273438 L 102.402344 166.203125 L 104.453125 164.589844 L 99.765625 168.273438 " fill-opacity="1" fill-rule="nonzero"/></g></g></g></g><g clip-path="url(#2f06006c6a)"><g clip-path="url(#bc65ef88fa)"><g clip-path="url(#11cf529ca1)"><g clip-path="url(#a5b1b85409)"><path fill="#54ba44" d="M 102.402344 166.203125 L 104.453125 164.589844 L 102.402344 166.203125 " fill-opacity="1" fill-rule="nonzero"/></g></g></g></g><g clip-path="url(#314537cc2c)"><g clip-path="url(#0f741d1a8e)"><g clip-path="url(#b220e39da7)"><g clip-path="url(#b0467d1028)"><path fill="#eddab2" d="M 99.765625 168.273438 L 104.453125 164.589844 C 103.511719 163.742188 102.621094 162.796875 101.804688 161.75 C 100.066406 159.53125 98.832031 157.113281 98.09375 154.671875 C 97.898438 154.746094 97.703125 154.808594 97.503906 154.863281 C 97.183594 154.945312 96.859375 154.996094 96.53125 155.019531 L 97.320312 158.242188 L 99.765625 168.273438 " fill-opacity="1" fill-rule="nonzero"/></g></g></g></g><g clip-path="url(#32e843b373)"><g clip-path="url(#90555634a2)"><g clip-path="url(#1d20d4e74d)"><g clip-path="url(#52fe588f3c)"><path fill="#4da23a" d="M 97.503906 154.863281 C 97.703125 154.808594 97.898438 154.746094 98.09375 154.671875 C 97.566406 152.925781 97.296875 151.167969 97.277344 149.464844 L 94.871094 148.210938 L 96.53125 155.019531 C 96.859375 154.996094 97.183594 154.945312 97.503906 154.863281 " fill-opacity="1" fill-rule="nonzero"/></g></g></g></g><g clip-path="url(#594da1e10d)"><g clip-path="url(#95a588a09c)"><g clip-path="url(#37c977c122)"><g clip-path="url(#ae67facfa7)"><path fill="#009eaa" d="M 164.917969 234.382812 L 170.746094 219.730469 L 99.6875 191.273438 L 93.859375 205.929688 L 164.917969 234.382812 " fill-opacity="1" fill-rule="nonzero"/></g></g></g></g><g clip-path="url(#f40369bc2d)"><g clip-path="url(#9d5779a81e)"><g clip-path="url(#8f5b820dd2)"><g clip-path="url(#e3b0429f29)"><path fill="#00c2d0" d="M 166.066406 231.496094 L 170.746094 219.730469 L 99.6875 191.273438 L 95.007812 203.042969 L 166.066406 231.496094 " fill-opacity="1" fill-rule="nonzero"/></g></g></g></g><g clip-path="url(#f462bfd966)"><g clip-path="url(#4bbdc0d84a)"><g clip-path="url(#6a539daf9c)"><g clip-path="url(#af33c0aa17)"><path fill="#ead4a6" d="M 80.648438 192.144531 L 93.859375 205.929688 L 96.777344 198.601562 L 99.6875 191.273438 L 90.167969 191.710938 L 80.648438 192.144531 " fill-opacity="1" fill-rule="nonzero"/></g></g></g></g><g clip-path="url(#7b260e3004)"><g clip-path="url(#51d44d0343)"><g clip-path="url(#ed717ab8cd)"><g clip-path="url(#81800e0e17)"><path fill="#009eaa" d="M 80.648438 192.144531 L 87.152344 191.847656 C 87.339844 192.742188 87.277344 193.699219 86.914062 194.609375 C 86.542969 195.546875 85.90625 196.296875 85.132812 196.820312 L 80.648438 192.144531 " fill-opacity="1" fill-rule="nonzero"/></g></g></g></g><g clip-path="url(#ac5bb605c4)"><g clip-path="url(#1bdff5a65a)"><g clip-path="url(#b4ae80a712)"><g clip-path="url(#24573c601f)"><path fill="#ffffff" d="M 93.859375 205.929688 L 87.253906 199.035156 L 85.132812 196.820312 L 87.253906 199.035156 L 93.859375 205.929688 M 94.980469 203.109375 L 95.597656 201.566406 L 95.902344 200.796875 L 94.980469 203.109375 " fill-opacity="1" fill-rule="nonzero"/></g></g></g></g><g clip-path="url(#d78074ab27)"><g clip-path="url(#a416d31cca)"><g clip-path="url(#4bb85e8e04)"><g clip-path="url(#f9b2dcca4e)"><path fill="#eddab2" d="M 93.859375 205.929688 L 94.980469 203.109375 L 95.902344 200.796875 C 94.757812 200.558594 93.605469 200.214844 92.46875 199.757812 C 90.050781 198.789062 87.941406 197.425781 86.21875 195.816406 C 85.90625 196.207031 85.539062 196.546875 85.132812 196.820312 L 87.253906 199.035156 L 93.859375 205.929688 M 83.152344 192.027344 L 80.648438 192.144531 L 83.152344 192.027344 " fill-opacity="1" fill-rule="nonzero"/></g></g></g></g><g clip-path="url(#e624a3633a)"><g clip-path="url(#fabcf4a970)"><g clip-path="url(#f179e93eb4)"><g clip-path="url(#530b8f23d7)"><path fill="#21abb5" d="M 85.132812 196.820312 C 85.539062 196.546875 85.90625 196.207031 86.21875 195.816406 C 84.988281 194.660156 83.957031 193.382812 83.152344 192.027344 L 80.648438 192.144531 L 85.132812 196.820312 " fill-opacity="1" fill-rule="nonzero"/></g></g></g></g><g clip-path="url(#41153fc3b3)"><g clip-path="url(#c830374eba)"><g clip-path="url(#020d0d3033)"><g clip-path="url(#dce73e6330)"><path fill="#ffb751" d="M 188.722656 235.632812 L 281.652344 142.707031 C 282.332031 142.027344 283.433594 142.027344 284.109375 142.703125 L 296.375 154.96875 C 297.046875 155.640625 297.046875 156.746094 296.371094 157.421875 L 203.441406 250.351562 C 202.765625 251.03125 201.660156 251.027344 200.984375 250.355469 L 188.71875 238.089844 C 188.046875 237.417969 188.046875 236.3125 188.722656 235.632812 " fill-opacity="1" fill-rule="evenodd"/><path stroke-linecap="round" transform="matrix(0.0771859, -0.0771859, -0.0769391, -0.0769391, 201.788809, 252.713979)" fill="none" stroke-linejoin="round" d="M 26.008735 195.916826 L 1229.956272 195.891441 C 1238.762126 195.891441 1245.897905 188.732773 1245.897905 179.949444 L 1245.897905 20.529474 C 1245.897905 11.796915 1238.736822 4.612862 1229.981576 4.612862 L 26.008735 4.612862 C 17.228185 4.587477 10.092406 11.796915 10.067102 20.554859 L 10.067102 179.974829 C 10.067102 188.707388 17.228185 195.891441 26.008735 195.916826 Z M 26.008735 195.916826 " stroke="#000000" stroke-width="2.16" stroke-opacity="1" stroke-miterlimit="2.613"/></g></g></g></g><g clip-path="url(#36b4473dd7)"><g clip-path="url(#6ce41d556d)"><g clip-path="url(#aac55959fc)"><g clip-path="url(#8df9ab140f)"><path fill="#000000" d="M 189.992188 234.367188 L 195.605469 239.980469 C 195.703125 240.082031 195.703125 240.242188 195.609375 240.339844 C 195.507812 240.4375 195.34375 240.441406 195.246094 240.339844 L 189.632812 234.726562 Z M 190.996094 233.363281 L 191.355469 233.003906 L 194.851562 236.503906 C 194.953125 236.601562 194.949219 236.761719 194.847656 236.859375 C 194.753906 236.957031 194.59375 236.960938 194.492188 236.863281 Z M 192.304688 232.050781 L 192.664062 231.695312 L 196.160156 235.195312 C 196.261719 235.292969 196.257812 235.449219 196.160156 235.550781 C 196.058594 235.648438 195.902344 235.648438 195.804688 235.550781 Z M 193.535156 230.820312 L 193.894531 230.460938 L 197.394531 233.960938 C 197.492188 234.058594 197.488281 234.21875 197.394531 234.316406 C 197.292969 234.414062 197.132812 234.417969 197.035156 234.320312 Z M 194.847656 229.511719 L 195.203125 229.15625 L 200.816406 234.769531 C 200.917969 234.867188 200.921875 235.027344 200.820312 235.125 C 200.722656 235.226562 200.5625 235.222656 200.460938 235.125 Z M 196.027344 228.332031 L 196.386719 227.972656 L 199.882812 231.472656 C 199.984375 231.570312 199.980469 231.730469 199.878906 231.828125 C 199.785156 231.925781 199.625 231.929688 199.527344 231.828125 Z M 197.339844 227.019531 L 197.695312 226.664062 L 201.191406 230.164062 C 201.292969 230.261719 201.292969 230.417969 201.191406 230.515625 C 201.09375 230.617188 200.9375 230.617188 200.835938 230.519531 Z M 198.570312 225.789062 L 198.925781 225.429688 L 202.425781 228.929688 C 202.523438 229.027344 202.523438 229.1875 202.421875 229.289062 C 202.324219 229.382812 202.167969 229.386719 202.066406 229.289062 Z M 199.878906 224.476562 L 200.234375 224.121094 L 205.851562 229.734375 C 205.949219 229.835938 205.953125 229.996094 205.851562 230.09375 C 205.753906 230.195312 205.59375 230.191406 205.496094 230.09375 Z M 201.058594 223.300781 L 201.414062 222.941406 L 204.914062 226.441406 C 205.011719 226.539062 205.011719 226.699219 204.914062 226.796875 C 204.8125 226.894531 204.65625 226.898438 204.558594 226.796875 Z M 202.371094 221.988281 L 202.726562 221.632812 L 206.226562 225.128906 C 206.324219 225.230469 206.324219 225.386719 206.222656 225.484375 C 206.125 225.585938 205.96875 225.585938 205.871094 225.484375 Z M 203.601562 220.757812 L 203.960938 220.398438 L 207.457031 223.898438 C 207.558594 223.996094 207.554688 224.15625 207.453125 224.253906 C 207.355469 224.355469 207.199219 224.355469 207.097656 224.253906 Z M 204.914062 219.445312 L 205.269531 219.089844 L 210.882812 224.703125 C 210.980469 224.804688 210.984375 224.960938 210.886719 225.0625 C 210.785156 225.160156 210.625 225.160156 210.527344 225.058594 Z M 206.089844 218.265625 L 206.445312 217.910156 L 209.945312 221.410156 C 210.042969 221.507812 210.042969 221.664062 209.945312 221.765625 C 209.84375 221.863281 209.6875 221.863281 209.589844 221.765625 Z M 207.398438 216.957031 L 207.757812 216.597656 L 211.257812 220.097656 C 211.355469 220.195312 211.351562 220.355469 211.257812 220.453125 C 211.15625 220.550781 210.996094 220.554688 210.898438 220.457031 Z M 208.632812 215.726562 L 208.988281 215.371094 L 212.488281 218.867188 C 212.585938 218.96875 212.585938 219.125 212.488281 219.222656 C 212.386719 219.324219 212.230469 219.324219 212.132812 219.222656 Z M 209.941406 214.417969 L 210.300781 214.058594 L 215.914062 219.671875 C 216.015625 219.769531 216.011719 219.933594 215.917969 220.03125 C 215.816406 220.128906 215.65625 220.128906 215.554688 220.03125 Z M 211.121094 213.238281 L 211.480469 212.878906 L 214.976562 216.378906 C 215.078125 216.476562 215.074219 216.636719 214.976562 216.734375 C 214.878906 216.832031 214.71875 216.835938 214.617188 216.734375 Z M 212.433594 211.925781 L 212.789062 211.566406 L 216.289062 215.066406 C 216.386719 215.164062 216.386719 215.324219 216.285156 215.425781 C 216.1875 215.519531 216.03125 215.523438 215.929688 215.425781 Z M 213.664062 210.691406 L 214.019531 210.335938 L 217.519531 213.835938 C 217.617188 213.933594 217.617188 214.089844 217.519531 214.191406 C 217.417969 214.289062 217.261719 214.289062 217.164062 214.191406 Z M 214.972656 209.382812 L 215.332031 209.027344 L 220.945312 214.640625 C 221.046875 214.738281 221.046875 214.902344 220.949219 214.996094 C 220.851562 215.097656 220.6875 215.097656 220.589844 215 Z M 216.152344 208.207031 L 216.511719 207.847656 L 220.011719 211.34375 C 220.109375 211.445312 220.105469 211.605469 220.007812 211.699219 C 219.910156 211.800781 219.75 211.804688 219.652344 211.703125 Z M 217.464844 206.894531 L 217.824219 206.535156 L 221.320312 210.035156 C 221.421875 210.132812 221.417969 210.292969 221.316406 210.390625 C 221.222656 210.488281 221.0625 210.492188 220.960938 210.390625 Z M 218.695312 205.664062 L 219.054688 205.304688 L 222.550781 208.804688 C 222.652344 208.902344 222.648438 209.0625 222.550781 209.160156 C 222.453125 209.257812 222.292969 209.261719 222.191406 209.164062 Z M 220.007812 204.351562 L 220.363281 203.992188 L 225.980469 209.609375 C 226.078125 209.707031 226.078125 209.871094 225.976562 209.96875 C 225.882812 210.066406 225.71875 210.066406 225.621094 209.964844 Z M 221.183594 203.171875 L 221.542969 202.816406 L 225.042969 206.3125 C 225.140625 206.414062 225.136719 206.570312 225.042969 206.667969 C 224.941406 206.769531 224.78125 206.769531 224.683594 206.671875 Z M 222.496094 201.863281 L 222.851562 201.507812 L 226.351562 205.003906 C 226.449219 205.105469 226.449219 205.261719 226.351562 205.359375 C 226.25 205.460938 226.09375 205.460938 225.996094 205.359375 Z M 223.726562 200.632812 L 224.085938 200.273438 L 227.582031 203.769531 C 227.683594 203.871094 227.679688 204.03125 227.582031 204.125 C 227.484375 204.226562 227.324219 204.230469 227.226562 204.128906 Z M 225.039062 199.320312 L 225.394531 198.964844 L 231.007812 204.578125 C 231.105469 204.675781 231.109375 204.835938 231.011719 204.9375 C 230.910156 205.035156 230.75 205.035156 230.652344 204.933594 Z M 226.21875 198.140625 L 226.574219 197.78125 L 230.074219 201.28125 C 230.171875 201.378906 230.171875 201.539062 230.070312 201.640625 C 229.972656 201.734375 229.816406 201.738281 229.714844 201.640625 Z M 227.527344 196.828125 L 227.882812 196.472656 L 231.382812 199.972656 C 231.480469 200.070312 231.480469 200.226562 231.382812 200.328125 C 231.28125 200.425781 231.125 200.425781 231.027344 200.328125 Z M 228.757812 195.597656 L 229.117188 195.242188 L 232.617188 198.738281 C 232.714844 198.839844 232.710938 198.996094 232.613281 199.097656 C 232.515625 199.195312 232.355469 199.195312 232.257812 199.097656 Z M 230.070312 194.289062 L 230.425781 193.933594 L 236.039062 199.546875 C 236.140625 199.644531 236.140625 199.804688 236.042969 199.90625 C 235.941406 200.003906 235.785156 200 235.683594 199.902344 Z M 231.25 193.109375 L 231.605469 192.753906 L 235.101562 196.25 C 235.203125 196.351562 235.203125 196.507812 235.101562 196.605469 C 235.003906 196.707031 234.847656 196.707031 234.746094 196.609375 Z M 232.5625 191.796875 L 232.917969 191.441406 L 236.414062 194.941406 C 236.515625 195.039062 236.515625 195.195312 236.414062 195.296875 C 236.316406 195.394531 236.160156 195.394531 236.058594 195.296875 Z M 233.789062 190.566406 L 234.148438 190.207031 L 237.648438 193.707031 C 237.746094 193.804688 237.742188 193.964844 237.644531 194.066406 C 237.546875 194.160156 237.386719 194.164062 237.289062 194.066406 Z M 235.101562 189.253906 L 235.457031 188.898438 L 241.074219 194.515625 C 241.171875 194.613281 241.175781 194.773438 241.074219 194.871094 C 240.976562 194.972656 240.816406 194.96875 240.714844 194.871094 Z M 236.28125 188.078125 L 236.636719 187.722656 L 240.136719 191.21875 C 240.234375 191.320312 240.234375 191.476562 240.136719 191.574219 C 240.035156 191.675781 239.878906 191.675781 239.78125 191.574219 Z M 237.589844 186.769531 L 237.949219 186.410156 L 241.445312 189.90625 C 241.546875 190.007812 241.542969 190.167969 241.445312 190.261719 C 241.347656 190.363281 241.1875 190.367188 241.089844 190.265625 Z M 238.824219 185.535156 L 239.179688 185.179688 L 242.675781 188.679688 C 242.777344 188.777344 242.777344 188.933594 242.675781 189.03125 C 242.578125 189.132812 242.421875 189.132812 242.320312 189.035156 Z M 240.132812 184.226562 L 240.492188 183.867188 L 246.105469 189.480469 C 246.203125 189.582031 246.203125 189.742188 246.105469 189.839844 C 246.007812 189.941406 245.84375 189.941406 245.746094 189.839844 Z M 241.308594 183.046875 L 241.667969 182.6875 L 245.167969 186.1875 C 245.265625 186.285156 245.265625 186.441406 245.167969 186.542969 C 245.066406 186.640625 244.90625 186.644531 244.808594 186.546875 Z M 242.621094 181.734375 L 242.980469 181.378906 L 246.480469 184.875 C 246.578125 184.976562 246.574219 185.132812 246.476562 185.234375 C 246.378906 185.332031 246.21875 185.332031 246.121094 185.234375 Z M 243.855469 180.503906 L 244.210938 180.148438 L 247.710938 183.644531 C 247.808594 183.746094 247.808594 183.902344 247.707031 184 C 247.609375 184.101562 247.453125 184.101562 247.355469 184 Z M 245.164062 179.195312 L 245.523438 178.835938 L 251.136719 184.449219 C 251.234375 184.550781 251.234375 184.710938 251.140625 184.808594 C 251.039062 184.90625 250.878906 184.90625 250.777344 184.808594 Z M 246.34375 178.015625 L 246.703125 177.65625 L 250.199219 181.15625 C 250.300781 181.253906 250.296875 181.414062 250.199219 181.511719 C 250.101562 181.609375 249.941406 181.613281 249.839844 181.515625 Z M 247.652344 176.703125 L 248.011719 176.34375 L 251.511719 179.84375 C 251.609375 179.941406 251.605469 180.101562 251.507812 180.203125 C 251.410156 180.300781 251.25 180.300781 251.152344 180.203125 Z M 248.882812 175.472656 L 249.242188 175.113281 L 252.742188 178.613281 C 252.839844 178.710938 252.839844 178.871094 252.742188 178.96875 C 252.640625 179.066406 252.480469 179.070312 252.382812 178.972656 Z M 250.195312 174.164062 L 250.554688 173.804688 L 256.167969 179.417969 C 256.269531 179.515625 256.269531 179.679688 256.167969 179.777344 C 256.070312 179.875 255.910156 179.875 255.808594 179.777344 Z M 251.375 172.984375 L 251.734375 172.625 L 255.230469 176.121094 C 255.332031 176.222656 255.328125 176.382812 255.230469 176.476562 C 255.132812 176.578125 254.972656 176.582031 254.875 176.480469 Z M 252.6875 171.671875 L 253.042969 171.316406 L 256.539062 174.816406 C 256.640625 174.914062 256.640625 175.070312 256.539062 175.167969 C 256.441406 175.269531 256.285156 175.269531 256.183594 175.171875 Z M 253.917969 170.441406 L 254.273438 170.082031 L 257.773438 173.582031 C 257.871094 173.679688 257.871094 173.839844 257.773438 173.9375 C 257.671875 174.035156 257.515625 174.039062 257.414062 173.941406 Z M 255.226562 169.128906 L 255.582031 168.773438 L 261.199219 174.386719 C 261.296875 174.488281 261.300781 174.648438 261.199219 174.746094 C 261.101562 174.847656 260.941406 174.84375 260.84375 174.746094 Z M 256.40625 167.953125 L 256.765625 167.59375 L 260.265625 171.089844 C 260.363281 171.191406 260.359375 171.347656 260.261719 171.449219 C 260.164062 171.546875 260.003906 171.550781 259.90625 171.449219 Z M 257.71875 166.640625 L 258.074219 166.285156 L 261.574219 169.78125 C 261.671875 169.882812 261.671875 170.039062 261.570312 170.136719 C 261.472656 170.238281 261.316406 170.238281 261.21875 170.136719 Z M 258.949219 165.410156 L 259.308594 165.050781 L 262.804688 168.550781 C 262.90625 168.648438 262.902344 168.808594 262.800781 168.90625 C 262.707031 169.003906 262.546875 169.007812 262.445312 168.90625 Z M 260.261719 164.097656 L 260.617188 163.742188 L 266.230469 169.355469 C 266.328125 169.457031 266.332031 169.613281 266.234375 169.714844 C 266.132812 169.8125 265.972656 169.8125 265.875 169.710938 Z M 261.4375 162.917969 L 261.796875 162.558594 L 265.296875 166.058594 C 265.394531 166.15625 265.390625 166.316406 265.292969 166.417969 C 265.191406 166.515625 265.035156 166.515625 264.9375 166.417969 Z M 262.75 161.609375 L 263.105469 161.25 L 266.605469 164.75 C 266.703125 164.847656 266.699219 165.007812 266.605469 165.105469 C 266.503906 165.203125 266.347656 165.207031 266.25 165.105469 Z M 263.980469 160.378906 L 264.339844 160.019531 L 267.839844 163.515625 C 267.9375 163.617188 267.933594 163.777344 267.835938 163.875 C 267.734375 163.976562 267.578125 163.976562 267.480469 163.875 Z M 265.292969 159.066406 L 265.648438 158.710938 L 271.261719 164.324219 C 271.363281 164.421875 271.363281 164.582031 271.265625 164.683594 C 271.164062 164.78125 271.003906 164.777344 270.90625 164.679688 Z M 266.472656 157.886719 L 266.828125 157.53125 L 270.324219 161.03125 C 270.425781 161.128906 270.425781 161.285156 270.324219 161.386719 C 270.226562 161.484375 270.070312 161.484375 269.96875 161.386719 Z M 267.78125 156.578125 L 268.136719 156.21875 L 271.636719 159.71875 C 271.734375 159.816406 271.734375 159.976562 271.636719 160.074219 C 271.535156 160.171875 271.378906 160.175781 271.277344 160.078125 Z M 269.011719 155.34375 L 269.371094 154.988281 L 272.871094 158.484375 C 272.96875 158.585938 272.964844 158.742188 272.867188 158.84375 C 272.765625 158.941406 272.609375 158.941406 272.511719 158.84375 Z M 270.320312 154.035156 L 270.679688 153.679688 L 276.292969 159.292969 C 276.394531 159.390625 276.394531 159.554688 276.296875 159.648438 C 276.199219 159.75 276.035156 159.75 275.9375 159.652344 Z M 271.503906 152.855469 L 271.859375 152.5 L 275.359375 155.996094 C 275.457031 156.097656 275.453125 156.257812 275.355469 156.351562 C 275.257812 156.453125 275.101562 156.453125 275 156.351562 Z M 272.8125 151.546875 L 273.171875 151.1875 L 276.667969 154.6875 C 276.769531 154.785156 276.765625 154.945312 276.664062 155.042969 C 276.570312 155.140625 276.410156 155.144531 276.308594 155.042969 Z M 274.046875 150.3125 L 274.402344 149.957031 L 277.898438 153.457031 C 278 153.554688 278 153.710938 277.898438 153.8125 C 277.800781 153.910156 277.644531 153.910156 277.542969 153.8125 Z M 275.355469 149.003906 L 275.710938 148.644531 L 281.328125 154.261719 C 281.425781 154.359375 281.425781 154.523438 281.324219 154.621094 C 281.230469 154.71875 281.066406 154.71875 280.96875 154.617188 Z M 276.53125 147.824219 L 276.890625 147.46875 L 280.390625 150.964844 C 280.488281 151.0625 280.484375 151.222656 280.390625 151.320312 C 280.289062 151.421875 280.128906 151.421875 280.03125 151.324219 Z M 277.84375 146.515625 L 278.203125 146.15625 L 281.703125 149.652344 C 281.800781 149.753906 281.796875 149.914062 281.699219 150.011719 C 281.597656 150.113281 281.441406 150.113281 281.34375 150.011719 Z M 279.074219 145.285156 L 279.433594 144.925781 L 282.929688 148.421875 C 283.03125 148.523438 283.03125 148.679688 282.929688 148.777344 C 282.832031 148.878906 282.671875 148.882812 282.574219 148.78125 Z M 280.386719 143.972656 L 280.746094 143.613281 L 286.359375 149.226562 C 286.457031 149.328125 286.457031 149.488281 286.359375 149.589844 C 286.261719 149.683594 286.097656 149.6875 286 149.585938 L 280.386719 143.972656 " fill-opacity="1" fill-rule="nonzero"/></g></g></g></g><path fill="#ffe47e" d="M 125.359375 130.9375 L 187.480469 130.9375 L 187.480469 193.0625 L 125.359375 193.0625 Z M 125.359375 130.9375 " fill-opacity="1" fill-rule="evenodd"/><path fill="#7e9eff" d="M 187.480469 130.9375 L 249.605469 130.9375 L 249.605469 193.0625 L 187.480469 193.0625 Z M 187.480469 130.9375 " fill-opacity="1" fill-rule="evenodd"/><path fill="#ff847e" d="M 187.480469 193.0625 L 249.605469 193.0625 L 249.605469 255.1875 L 187.480469 255.1875 Z M 187.480469 193.0625 " fill-opacity="1" fill-rule="evenodd"/><path fill="#7eff86" d="M 125.359375 193.0625 L 187.480469 193.0625 L 187.480469 255.1875 L 125.359375 255.1875 Z M 125.359375 193.0625 " fill-opacity="1" fill-rule="evenodd"/><g clip-path="url(#1a6ea67e61)"><path fill="#ffffff" d="M 122.375 130.9375 L 122.375 255.1875 C 122.375 256.832031 123.710938 258.167969 125.359375 258.167969 L 249.605469 258.167969 C 250.421875 258.167969 251.164062 257.839844 251.699219 257.308594 L 251.824219 257.175781 L 251.941406 257.042969 L 252.117188 256.792969 L 252.234375 256.589844 L 252.324219 256.414062 C 252.375 256.296875 252.421875 256.179688 252.457031 256.054688 C 252.515625 255.863281 252.554688 255.664062 252.574219 255.457031 L 252.585938 255.1875 L 252.585938 130.9375 C 252.585938 129.292969 251.253906 127.957031 249.605469 127.957031 L 125.359375 127.957031 C 123.710938 127.957031 122.375 129.292969 122.375 130.9375 Z M 184.5 252.203125 L 184.5 196.042969 L 128.339844 196.042969 L 128.339844 252.203125 Z M 215.871094 252.203125 L 190.464844 252.203125 L 190.464844 196.042969 C 190.464844 196.042969 246.625 196.042969 246.625 196.042969 C 246.625 196.042969 246.625 252.203125 246.625 252.203125 Z M 155.042969 219.90625 L 148.15625 213.023438 C 146.992188 211.859375 145.105469 211.859375 143.941406 213.023438 C 142.777344 214.1875 142.777344 216.074219 143.941406 217.238281 L 150.824219 224.125 L 143.941406 231.007812 C 142.777344 232.171875 142.777344 234.0625 143.941406 235.226562 C 145.105469 236.390625 146.992188 236.390625 148.15625 235.226562 L 155.042969 228.339844 L 161.925781 235.226562 C 163.089844 236.390625 164.980469 236.390625 166.144531 235.226562 C 167.308594 234.0625 167.308594 232.171875 166.144531 231.007812 L 159.257812 224.125 L 166.144531 217.238281 C 167.308594 216.074219 167.308594 214.1875 166.144531 213.023438 C 164.980469 211.859375 163.089844 211.859375 161.925781 213.023438 Z M 208.304688 233.464844 L 229.398438 233.464844 C 231.042969 233.464844 232.378906 232.128906 232.378906 230.484375 C 232.378906 228.835938 231.042969 227.5 229.398438 227.5 L 208.304688 227.5 C 206.660156 227.5 205.324219 228.835938 205.324219 230.484375 C 205.324219 232.128906 206.660156 233.464844 208.304688 233.464844 Z M 207.6875 220.746094 L 228.78125 220.746094 C 230.425781 220.746094 231.761719 219.410156 231.761719 217.765625 C 231.761719 216.121094 230.425781 214.785156 228.78125 214.785156 L 207.6875 214.785156 C 206.042969 214.785156 204.707031 216.121094 204.707031 217.765625 C 204.707031 219.410156 206.042969 220.746094 207.6875 220.746094 Z M 128.339844 133.921875 L 128.339844 190.082031 L 184.5 190.082031 L 184.5 133.921875 Z M 190.464844 133.921875 L 246.625 133.921875 L 246.625 190.082031 L 190.464844 190.082031 Z M 152.058594 159.019531 L 142.324219 159.019531 C 140.679688 159.019531 139.34375 160.355469 139.34375 162 C 139.34375 163.644531 140.679688 164.984375 142.324219 164.984375 L 152.058594 164.984375 L 152.058594 174.71875 C 152.058594 176.363281 153.394531 177.699219 155.042969 177.699219 C 156.6875 177.699219 158.023438 176.363281 158.023438 174.71875 L 158.023438 164.984375 L 167.761719 164.984375 C 169.40625 164.984375 170.742188 163.644531 170.742188 162 C 170.742188 160.355469 169.40625 159.019531 167.761719 159.019531 L 158.023438 159.019531 L 158.023438 149.28125 C 158.023438 147.636719 156.6875 146.300781 155.042969 146.300781 C 153.394531 146.300781 152.058594 147.636719 152.058594 149.28125 Z M 227.535156 166.765625 C 225.203125 166.765625 223.308594 168.660156 223.308594 170.992188 C 223.308594 173.328125 225.203125 175.222656 227.535156 175.222656 C 229.871094 175.222656 231.765625 173.328125 231.765625 170.992188 C 231.765625 168.660156 229.871094 166.765625 227.535156 166.765625 Z M 225.429688 150.898438 L 207.441406 168.886719 C 206.277344 170.050781 206.277344 171.9375 207.441406 173.101562 C 208.605469 174.265625 210.496094 174.265625 211.660156 173.101562 L 229.644531 155.117188 C 230.808594 153.953125 230.808594 152.0625 229.644531 150.898438 C 228.480469 149.734375 226.589844 149.734375 225.429688 150.898438 Z M 209.550781 148.78125 C 207.214844 148.78125 205.324219 150.675781 205.324219 153.007812 C 205.324219 155.339844 207.214844 157.234375 209.550781 157.234375 C 211.882812 157.234375 213.777344 155.339844 213.777344 153.007812 C 213.777344 150.675781 211.882812 148.78125 209.550781 148.78125 Z M 209.550781 148.78125 " fill-opacity="1" fill-rule="evenodd"/></g><g fill="#ffffff" fill-opacity="1"><g transform="translate(118.121402, 112.177724)"><g><path d="M 15.828125 -7.4375 C 14.535156 -7.4375 13.148438 -7.457031 11.671875 -7.5 C 10.203125 -7.550781 8.785156 -7.617188 7.421875 -7.703125 C 6.054688 -7.796875 4.847656 -7.90625 3.796875 -8.03125 C 3.398438 -8.09375 3.070312 -8.28125 2.8125 -8.59375 C 2.5625 -8.90625 2.4375 -9.300781 2.4375 -9.78125 C 2.582031 -12.164062 2.984375 -14.625 3.640625 -17.15625 C 4.304688 -19.695312 5.066406 -22.15625 5.921875 -24.53125 C 6.785156 -26.914062 7.5625 -29.066406 8.25 -30.984375 C 8.582031 -31.796875 9.109375 -32.203125 9.828125 -32.203125 C 10.015625 -32.203125 10.203125 -32.171875 10.390625 -32.109375 C 10.585938 -32.054688 10.789062 -31.984375 11 -31.890625 C 11.84375 -31.503906 12.265625 -31.007812 12.265625 -30.40625 C 12.265625 -30.101562 12.207031 -29.816406 12.09375 -29.546875 C 11.457031 -27.804688 10.78125 -25.921875 10.0625 -23.890625 C 9.34375 -21.859375 8.6875 -19.78125 8.09375 -17.65625 C 7.507812 -15.539062 7.082031 -13.472656 6.8125 -11.453125 C 8.039062 -11.367188 9.488281 -11.300781 11.15625 -11.25 C 12.832031 -11.207031 14.539062 -11.1875 16.28125 -11.1875 L 18.71875 -11.1875 C 18.6875 -11.96875 18.671875 -12.765625 18.671875 -13.578125 C 18.671875 -14.390625 18.671875 -15.1875 18.671875 -15.96875 C 18.671875 -18.375 18.722656 -20.835938 18.828125 -23.359375 C 18.929688 -25.890625 19.078125 -28.253906 19.265625 -30.453125 C 19.328125 -31.023438 19.484375 -31.429688 19.734375 -31.671875 C 19.992188 -31.910156 20.421875 -32.03125 21.015625 -32.03125 C 21.890625 -32.03125 22.515625 -31.894531 22.890625 -31.625 C 23.265625 -31.351562 23.421875 -30.84375 23.359375 -30.09375 C 23.179688 -27.832031 23.03125 -25.554688 22.90625 -23.265625 C 22.789062 -20.984375 22.734375 -18.640625 22.734375 -16.234375 C 22.734375 -15.453125 22.734375 -14.640625 22.734375 -13.796875 C 22.734375 -12.960938 22.75 -12.125 22.78125 -11.28125 C 23.625 -11.3125 24.421875 -11.347656 25.171875 -11.390625 C 25.921875 -11.429688 26.644531 -11.46875 27.34375 -11.5 C 28.125 -11.5625 28.632812 -11.410156 28.875 -11.046875 C 29.113281 -10.691406 29.234375 -10.125 29.234375 -9.34375 C 29.234375 -8.851562 29.117188 -8.488281 28.890625 -8.25 C 28.660156 -8.007812 28.25 -7.875 27.65625 -7.84375 C 26.90625 -7.789062 26.128906 -7.738281 25.328125 -7.6875 C 24.535156 -7.644531 23.71875 -7.59375 22.875 -7.53125 C 22.925781 -6.414062 22.972656 -5.320312 23.015625 -4.25 C 23.066406 -3.1875 23.125 -2.207031 23.1875 -1.3125 C 23.25 -0.832031 23.113281 -0.414062 22.78125 -0.0625 C 22.445312 0.28125 21.800781 0.453125 20.84375 0.453125 C 20.207031 0.453125 19.757812 0.320312 19.5 0.0625 C 19.25 -0.1875 19.109375 -0.628906 19.078125 -1.265625 C 19.015625 -2.222656 18.960938 -3.226562 18.921875 -4.28125 C 18.878906 -5.332031 18.828125 -6.382812 18.765625 -7.4375 Z M 15.828125 -7.4375 "/></g></g></g><g fill="#ffffff" fill-opacity="1"><g transform="translate(148.207882, 112.177724)"><g><path d="M 4.921875 0.453125 C 3.953125 0.453125 3.296875 0.300781 2.953125 0 C 2.609375 -0.300781 2.421875 -0.738281 2.390625 -1.3125 C 2.390625 -1.695312 2.394531 -2.003906 2.40625 -2.234375 C 2.425781 -2.460938 2.453125 -2.722656 2.484375 -3.015625 C 2.546875 -3.648438 2.769531 -4.117188 3.15625 -4.421875 C 3.550781 -4.722656 4.164062 -4.84375 5 -4.78125 C 5.90625 -4.6875 6.53125 -4.484375 6.875 -4.171875 C 7.21875 -3.859375 7.378906 -3.398438 7.359375 -2.796875 L 7.265625 -1.171875 C 7.234375 -0.722656 7.070312 -0.335938 6.78125 -0.015625 C 6.5 0.296875 5.878906 0.453125 4.921875 0.453125 Z M 4.921875 0.453125 "/></g></g></g><g fill="#ffffff" fill-opacity="1"><g transform="translate(157.951032, 112.177724)"><g><path d="M 11.1875 0.453125 C 9.445312 0.453125 7.9375 0.316406 6.65625 0.046875 C 5.375 -0.222656 4.160156 -0.628906 3.015625 -1.171875 C 2.804688 -1.296875 2.617188 -1.453125 2.453125 -1.640625 C 2.285156 -1.835938 2.203125 -2.085938 2.203125 -2.390625 C 2.203125 -2.628906 2.28125 -2.945312 2.4375 -3.34375 C 2.644531 -3.820312 2.875 -4.15625 3.125 -4.34375 C 3.382812 -4.539062 3.664062 -4.640625 3.96875 -4.640625 C 4.175781 -4.640625 4.382812 -4.597656 4.59375 -4.515625 C 5.800781 -4.035156 6.960938 -3.660156 8.078125 -3.390625 C 9.191406 -3.117188 10.394531 -2.984375 11.6875 -2.984375 C 13.820312 -2.984375 15.320312 -3.238281 16.1875 -3.75 C 17.0625 -4.257812 17.5 -5.070312 17.5 -6.1875 C 17.5 -6.71875 17.351562 -7.207031 17.0625 -7.65625 C 16.78125 -8.113281 16.253906 -8.515625 15.484375 -8.859375 C 14.722656 -9.203125 13.59375 -9.46875 12.09375 -9.65625 C 9.226562 -9.988281 7.070312 -10.671875 5.625 -11.703125 C 4.1875 -12.742188 3.46875 -14.363281 3.46875 -16.5625 C 3.46875 -18.75 4.1875 -20.367188 5.625 -21.421875 C 7.070312 -22.472656 9.125 -23 11.78125 -23 C 13.820312 -23 15.519531 -22.78125 16.875 -22.34375 C 18.226562 -21.914062 19.367188 -21.367188 20.296875 -20.703125 C 20.742188 -20.429688 20.96875 -20.085938 20.96875 -19.671875 C 20.96875 -19.335938 20.832031 -18.945312 20.5625 -18.5 C 20.144531 -17.832031 19.664062 -17.5 19.125 -17.5 C 18.882812 -17.5 18.613281 -17.578125 18.3125 -17.734375 C 16.65625 -18.929688 14.503906 -19.53125 11.859375 -19.53125 C 8.910156 -19.53125 7.4375 -18.539062 7.4375 -16.5625 C 7.4375 -15.445312 7.925781 -14.632812 8.90625 -14.125 C 9.882812 -13.613281 11.425781 -13.234375 13.53125 -12.984375 C 15.664062 -12.710938 17.296875 -12.257812 18.421875 -11.625 C 19.554688 -11 20.335938 -10.226562 20.765625 -9.3125 C 21.203125 -8.394531 21.421875 -7.335938 21.421875 -6.140625 C 21.421875 -4.117188 20.65625 -2.515625 19.125 -1.328125 C 17.59375 -0.140625 14.945312 0.453125 11.1875 0.453125 Z M 11.1875 0.453125 "/></g></g></g><g fill="#ffffff" fill-opacity="1"><g transform="translate(181.948039, 112.177724)"><g><path d="M 5.6875 0.453125 C 4.8125 0.453125 4.238281 0.300781 3.96875 0 C 3.695312 -0.300781 3.578125 -0.738281 3.609375 -1.3125 C 3.671875 -2.632812 3.742188 -4.144531 3.828125 -5.84375 C 3.921875 -7.539062 3.984375 -9.203125 4.015625 -10.828125 C 4.046875 -11.785156 4.066406 -12.742188 4.078125 -13.703125 C 4.097656 -14.671875 4.109375 -15.632812 4.109375 -16.59375 C 4.109375 -17.320312 4.109375 -18.050781 4.109375 -18.78125 C 4.109375 -19.519531 4.078125 -20.265625 4.015625 -21.015625 C 3.984375 -21.648438 4.101562 -22.140625 4.375 -22.484375 C 4.644531 -22.828125 5.25 -23 6.1875 -23 C 7.207031 -23 7.773438 -22.535156 7.890625 -21.609375 C 7.984375 -20.222656 8.03125 -18.675781 8.03125 -16.96875 C 8.03125 -16.175781 8.019531 -15.378906 8 -14.578125 C 7.988281 -13.785156 7.96875 -13.03125 7.9375 -12.3125 C 7.9375 -11.6875 7.910156 -10.890625 7.859375 -9.921875 C 7.816406 -8.960938 7.773438 -7.941406 7.734375 -6.859375 C 7.691406 -5.773438 7.644531 -4.742188 7.59375 -3.765625 C 7.550781 -2.785156 7.515625 -1.96875 7.484375 -1.3125 C 7.484375 -0.644531 7.332031 -0.1875 7.03125 0.0625 C 6.738281 0.320312 6.289062 0.453125 5.6875 0.453125 Z M 5.6875 0.453125 "/></g></g></g><g fill="#ffffff" fill-opacity="1"><g transform="translate(193.585681, 112.177724)"><g><path d="M 5.28125 0.40625 C 4.582031 0.3125 4.113281 0.144531 3.875 -0.09375 C 3.632812 -0.332031 3.546875 -0.738281 3.609375 -1.3125 C 3.671875 -2.394531 3.71875 -3.398438 3.75 -4.328125 C 3.78125 -5.265625 3.804688 -6.285156 3.828125 -7.390625 C 3.859375 -8.503906 3.875 -9.832031 3.875 -11.375 C 3.875 -12.90625 3.863281 -14.21875 3.84375 -15.3125 C 3.832031 -16.414062 3.8125 -17.429688 3.78125 -18.359375 C 3.757812 -19.296875 3.734375 -20.257812 3.703125 -21.25 C 3.671875 -21.9375 3.828125 -22.398438 4.171875 -22.640625 C 4.515625 -22.878906 5.0625 -23 5.8125 -23 C 6.476562 -23 6.9375 -22.878906 7.1875 -22.640625 C 7.445312 -22.398438 7.59375 -22.023438 7.625 -21.515625 L 7.71875 -17.59375 C 8.613281 -19.363281 9.820312 -20.707031 11.34375 -21.625 C 12.863281 -22.539062 14.601562 -23 16.5625 -23 C 19.800781 -23 22.140625 -22.082031 23.578125 -20.25 C 25.023438 -18.414062 25.75 -15.890625 25.75 -12.671875 C 25.75 -10.691406 25.664062 -8.648438 25.5 -6.546875 C 25.34375 -4.441406 25.066406 -2.457031 24.671875 -0.59375 C 24.609375 -0.257812 24.4375 -0.00390625 24.15625 0.171875 C 23.875 0.359375 23.535156 0.453125 23.140625 0.453125 C 23.015625 0.453125 22.890625 0.441406 22.765625 0.421875 C 22.648438 0.410156 22.535156 0.390625 22.421875 0.359375 C 21.847656 0.210938 21.441406 0.0234375 21.203125 -0.203125 C 20.960938 -0.429688 20.84375 -0.707031 20.84375 -1.03125 C 20.84375 -1.21875 20.859375 -1.351562 20.890625 -1.4375 C 21.191406 -3.15625 21.421875 -4.988281 21.578125 -6.9375 C 21.742188 -8.894531 21.828125 -10.613281 21.828125 -12.09375 C 21.828125 -14.46875 21.347656 -16.289062 20.390625 -17.5625 C 19.429688 -18.84375 17.851562 -19.484375 15.65625 -19.484375 C 14.269531 -19.484375 12.988281 -19.144531 11.8125 -18.46875 C 10.644531 -17.789062 9.695312 -16.632812 8.96875 -15 C 8.25 -13.363281 7.847656 -11.085938 7.765625 -8.171875 C 7.765625 -7.503906 7.75 -6.660156 7.71875 -5.640625 C 7.6875 -4.617188 7.65625 -3.640625 7.625 -2.703125 C 7.59375 -1.773438 7.53125 -1.097656 7.4375 -0.671875 C 7.320312 -0.222656 7.113281 0.0859375 6.8125 0.265625 C 6.507812 0.453125 6 0.5 5.28125 0.40625 Z M 5.28125 0.40625 "/></g></g></g><g fill="#ffffff" fill-opacity="1"><g transform="translate(222.950438, 112.177724)"><g><path d="M 5.6875 0.453125 C 4.8125 0.453125 4.238281 0.300781 3.96875 0 C 3.695312 -0.300781 3.578125 -0.738281 3.609375 -1.3125 C 3.671875 -2.632812 3.742188 -4.144531 3.828125 -5.84375 C 3.921875 -7.539062 3.984375 -9.203125 4.015625 -10.828125 C 4.046875 -11.785156 4.066406 -12.742188 4.078125 -13.703125 C 4.097656 -14.671875 4.109375 -15.632812 4.109375 -16.59375 C 4.109375 -17.320312 4.109375 -18.050781 4.109375 -18.78125 C 4.109375 -19.519531 4.078125 -20.265625 4.015625 -21.015625 C 3.984375 -21.648438 4.101562 -22.140625 4.375 -22.484375 C 4.644531 -22.828125 5.25 -23 6.1875 -23 C 7.207031 -23 7.773438 -22.535156 7.890625 -21.609375 C 7.984375 -20.222656 8.03125 -18.675781 8.03125 -16.96875 C 8.03125 -16.175781 8.019531 -15.378906 8 -14.578125 C 7.988281 -13.785156 7.96875 -13.03125 7.9375 -12.3125 C 7.9375 -11.6875 7.910156 -10.890625 7.859375 -9.921875 C 7.816406 -8.960938 7.773438 -7.941406 7.734375 -6.859375 C 7.691406 -5.773438 7.644531 -4.742188 7.59375 -3.765625 C 7.550781 -2.785156 7.515625 -1.96875 7.484375 -1.3125 C 7.484375 -0.644531 7.332031 -0.1875 7.03125 0.0625 C 6.738281 0.320312 6.289062 0.453125 5.6875 0.453125 Z M 5.6875 0.453125 "/></g></g></g><g fill="#ffffff" fill-opacity="1"><g transform="translate(234.588081, 112.177724)"><g><path d="M 6.953125 0.453125 C 6.460938 0.453125 6.078125 0.359375 5.796875 0.171875 C 5.515625 -0.00390625 5.34375 -0.347656 5.28125 -0.859375 C 5.21875 -2.242188 5.148438 -3.957031 5.078125 -6 C 5.003906 -8.039062 4.941406 -10.195312 4.890625 -12.46875 C 4.847656 -14.738281 4.796875 -16.882812 4.734375 -18.90625 L 2.296875 -18.90625 C 1.609375 -18.90625 1.128906 -19.03125 0.859375 -19.28125 C 0.585938 -19.539062 0.453125 -19.984375 0.453125 -20.609375 C 0.453125 -21.847656 1.035156 -22.46875 2.203125 -22.46875 L 4.6875 -22.46875 C 4.65625 -23.25 4.640625 -23.945312 4.640625 -24.5625 C 4.640625 -25.175781 4.640625 -25.695312 4.640625 -26.125 C 4.640625 -28.820312 5.335938 -30.835938 6.734375 -32.171875 C 8.140625 -33.515625 9.96875 -34.1875 12.21875 -34.1875 C 13.726562 -34.1875 14.945312 -34.003906 15.875 -33.640625 C 16.8125 -33.285156 17.742188 -32.671875 18.671875 -31.796875 C 19.148438 -31.441406 19.390625 -31.019531 19.390625 -30.53125 C 19.390625 -30.207031 19.269531 -29.878906 19.03125 -29.546875 C 18.550781 -28.910156 18.085938 -28.59375 17.640625 -28.59375 C 17.453125 -28.59375 17.253906 -28.671875 17.046875 -28.828125 C 16.296875 -29.515625 15.617188 -29.992188 15.015625 -30.265625 C 14.421875 -30.535156 13.671875 -30.671875 12.765625 -30.671875 C 11.585938 -30.671875 10.59375 -30.300781 9.78125 -29.5625 C 8.976562 -28.832031 8.578125 -27.710938 8.578125 -26.203125 L 8.609375 -22.46875 C 9.660156 -22.46875 10.675781 -22.46875 11.65625 -22.46875 C 12.632812 -22.46875 13.515625 -22.46875 14.296875 -22.46875 C 14.898438 -22.46875 15.3125 -22.320312 15.53125 -22.03125 C 15.757812 -21.75 15.875 -21.304688 15.875 -20.703125 C 15.875 -19.535156 15.332031 -18.953125 14.25 -18.953125 L 8.65625 -18.953125 C 8.71875 -16.929688 8.769531 -14.789062 8.8125 -12.53125 C 8.863281 -10.28125 8.925781 -8.15625 9 -6.15625 C 9.070312 -4.15625 9.140625 -2.507812 9.203125 -1.21875 C 9.265625 -0.550781 9.117188 -0.109375 8.765625 0.109375 C 8.421875 0.335938 7.816406 0.453125 6.953125 0.453125 Z M 6.953125 0.453125 "/></g></g></g><g fill="#ffffff" fill-opacity="1"><g transform="translate(100.818397, 278.898685)"><g><path d="M 2.296875 1.21875 C 1.773438 0.8125 1.457031 0.414062 1.34375 0.03125 C 1.226562 -0.351562 1.269531 -0.742188 1.46875 -1.140625 C 1.519531 -1.242188 1.566406 -1.332031 1.609375 -1.40625 C 1.660156 -1.488281 1.710938 -1.570312 1.765625 -1.65625 C 2.429688 -2.625 3.234375 -3.753906 4.171875 -5.046875 C 5.109375 -6.347656 6.109375 -7.6875 7.171875 -9.0625 C 8.242188 -10.445312 9.304688 -11.753906 10.359375 -12.984375 C 11.410156 -14.222656 12.375 -15.242188 13.25 -16.046875 C 14.113281 -16.828125 14.847656 -17.257812 15.453125 -17.34375 C 16.054688 -17.4375 16.628906 -17.351562 17.171875 -17.09375 C 17.691406 -16.832031 18.09375 -16.472656 18.375 -16.015625 C 18.65625 -15.554688 18.796875 -14.742188 18.796875 -13.578125 C 18.765625 -12.847656 18.6875 -11.828125 18.5625 -10.515625 C 18.4375 -9.203125 18.269531 -7.820312 18.0625 -6.375 C 19.101562 -7.375 20.109375 -8.320312 21.078125 -9.21875 C 22.046875 -10.125 22.820312 -10.804688 23.40625 -11.265625 C 24.15625 -11.835938 24.832031 -12.207031 25.4375 -12.375 C 26.050781 -12.539062 26.660156 -12.476562 27.265625 -12.1875 C 28.492188 -11.59375 29.085938 -10.414062 29.046875 -8.65625 C 29.003906 -7.632812 28.863281 -6.453125 28.625 -5.109375 C 28.394531 -3.773438 28.097656 -2.375 27.734375 -0.90625 C 27.378906 0.550781 26.984375 1.984375 26.546875 3.390625 C 26.109375 4.804688 25.679688 6.113281 25.265625 7.3125 C 24.859375 8.507812 24.476562 9.5 24.125 10.28125 C 23.894531 10.757812 23.554688 11.039062 23.109375 11.125 C 22.660156 11.207031 21.984375 11.03125 21.078125 10.59375 C 20.328125 10.226562 19.816406 9.847656 19.546875 9.453125 C 19.285156 9.066406 19.25 8.546875 19.4375 7.890625 C 19.8125 6.878906 20.234375 5.648438 20.703125 4.203125 C 21.171875 2.765625 21.640625 1.222656 22.109375 -0.421875 C 22.578125 -2.066406 23.023438 -3.695312 23.453125 -5.3125 C 22.242188 -3.84375 20.984375 -2.320312 19.671875 -0.75 C 18.359375 0.820312 17.144531 2.21875 16.03125 3.4375 C 15.425781 4.03125 14.878906 4.378906 14.390625 4.484375 C 13.898438 4.585938 13.3125 4.472656 12.625 4.140625 C 11.96875 3.828125 11.566406 3.421875 11.421875 2.921875 C 11.285156 2.429688 11.265625 1.898438 11.359375 1.328125 C 11.523438 0.710938 11.75 -0.140625 12.03125 -1.234375 C 12.320312 -2.335938 12.640625 -3.585938 12.984375 -4.984375 C 13.328125 -6.390625 13.664062 -7.8125 14 -9.25 C 12.90625 -7.800781 11.816406 -6.375 10.734375 -4.96875 C 9.648438 -3.5625 8.695312 -2.300781 7.875 -1.1875 C 7.050781 -0.0820312 6.453125 0.738281 6.078125 1.28125 C 5.648438 1.800781 5.222656 2.097656 4.796875 2.171875 C 4.378906 2.253906 3.925781 2.175781 3.4375 1.9375 C 3.257812 1.851562 3.078125 1.75 2.890625 1.625 C 2.703125 1.5 2.503906 1.363281 2.296875 1.21875 Z M 2.296875 1.21875 "/></g></g></g><g fill="#ffffff" fill-opacity="1"><g transform="translate(126.14056, 290.844895)"><g><path d="M 7.046875 2.59375 C 5.003906 1.9375 3.609375 0.992188 2.859375 -0.234375 C 2.117188 -1.460938 1.988281 -2.84375 2.46875 -4.375 C 2.789062 -5.382812 3.300781 -6.191406 4 -6.796875 C 4.707031 -7.410156 5.648438 -7.765625 6.828125 -7.859375 C 8.015625 -7.960938 9.472656 -7.738281 11.203125 -7.1875 C 12.066406 -6.914062 12.867188 -6.515625 13.609375 -5.984375 C 14.359375 -5.453125 14.96875 -4.851562 15.4375 -4.1875 C 15.507812 -4.40625 15.578125 -4.628906 15.640625 -4.859375 C 15.703125 -5.097656 15.75 -5.296875 15.78125 -5.453125 C 15.914062 -6.273438 15.71875 -6.992188 15.1875 -7.609375 C 14.664062 -8.222656 13.894531 -8.691406 12.875 -9.015625 C 12.101562 -9.265625 11.367188 -9.40625 10.671875 -9.4375 C 9.984375 -9.46875 9.28125 -9.457031 8.5625 -9.40625 C 8.351562 -9.40625 8.15625 -9.410156 7.96875 -9.421875 C 7.789062 -9.441406 7.617188 -9.476562 7.453125 -9.53125 C 7.109375 -9.644531 6.851562 -9.835938 6.6875 -10.109375 C 6.519531 -10.390625 6.390625 -10.78125 6.296875 -11.28125 C 6.210938 -11.757812 6.222656 -12.160156 6.328125 -12.484375 C 6.421875 -12.765625 6.578125 -12.988281 6.796875 -13.15625 C 7.023438 -13.332031 7.289062 -13.445312 7.59375 -13.5 C 8.425781 -13.6875 9.441406 -13.695312 10.640625 -13.53125 C 11.835938 -13.363281 13.132812 -13.0625 14.53125 -12.625 C 16.070312 -12.132812 17.367188 -11.445312 18.421875 -10.5625 C 19.484375 -9.6875 20.210938 -8.671875 20.609375 -7.515625 C 21.015625 -6.367188 21.003906 -5.128906 20.578125 -3.796875 C 20.285156 -2.878906 20.03125 -2.132812 19.8125 -1.5625 C 19.601562 -0.988281 19.394531 -0.375 19.1875 0.28125 C 19.019531 0.769531 18.925781 1.316406 18.90625 1.921875 C 18.882812 2.523438 18.898438 3.023438 18.953125 3.421875 C 18.992188 3.722656 18.972656 4 18.890625 4.25 C 18.679688 4.90625 17.9375 5.269531 16.65625 5.34375 C 16.113281 5.34375 15.65625 5.285156 15.28125 5.171875 C 14.34375 4.867188 13.894531 4.273438 13.9375 3.390625 C 13.914062 3.148438 13.898438 2.9375 13.890625 2.75 C 13.890625 2.570312 13.890625 2.40625 13.890625 2.25 C 13.054688 2.6875 12.085938 2.972656 10.984375 3.109375 C 9.878906 3.242188 8.566406 3.070312 7.046875 2.59375 Z M 7.375 -3.296875 C 7.03125 -2.191406 7.734375 -1.359375 9.484375 -0.796875 C 10.328125 -0.535156 11.097656 -0.4375 11.796875 -0.5 C 12.503906 -0.5625 13.242188 -0.765625 14.015625 -1.109375 C 13.804688 -1.785156 13.382812 -2.394531 12.75 -2.9375 C 12.125 -3.476562 11.410156 -3.875 10.609375 -4.125 C 9.648438 -4.4375 8.910156 -4.5 8.390625 -4.3125 C 7.867188 -4.125 7.53125 -3.785156 7.375 -3.296875 Z M 7.375 -3.296875 "/></g></g></g><g fill="#ffffff" fill-opacity="1"><g transform="translate(146.267941, 297.051397)"><g><path d="M 8.875 2.15625 C 7.039062 1.78125 5.691406 1.03125 4.828125 -0.09375 C 3.972656 -1.21875 3.765625 -2.832031 4.203125 -4.9375 C 4.390625 -5.863281 4.59375 -6.828125 4.8125 -7.828125 C 5.039062 -8.835938 5.269531 -9.847656 5.5 -10.859375 L 4.78125 -11 C 3.96875 -11.164062 3.445312 -11.457031 3.21875 -11.875 C 3 -12.289062 2.96875 -12.878906 3.125 -13.640625 C 3.28125 -14.410156 3.539062 -14.921875 3.90625 -15.171875 C 4.269531 -15.429688 4.878906 -15.472656 5.734375 -15.296875 L 6.515625 -15.140625 C 6.671875 -15.796875 6.820312 -16.410156 6.96875 -16.984375 C 7.113281 -17.554688 7.25 -18.082031 7.375 -18.5625 C 7.539062 -19.15625 7.8125 -19.523438 8.1875 -19.671875 C 8.570312 -19.816406 9.0625 -19.828125 9.65625 -19.703125 C 10.769531 -19.484375 11.523438 -19.179688 11.921875 -18.796875 C 12.316406 -18.421875 12.382812 -17.832031 12.125 -17.03125 C 12.019531 -16.65625 11.898438 -16.222656 11.765625 -15.734375 C 11.640625 -15.242188 11.503906 -14.707031 11.359375 -14.125 C 11.972656 -13.976562 12.5625 -13.84375 13.125 -13.71875 C 13.695312 -13.601562 14.179688 -13.507812 14.578125 -13.4375 C 15.296875 -13.289062 15.757812 -13.007812 15.96875 -12.59375 C 16.175781 -12.175781 16.207031 -11.609375 16.0625 -10.890625 C 15.914062 -10.171875 15.675781 -9.660156 15.34375 -9.359375 C 15.007812 -9.066406 14.484375 -8.992188 13.765625 -9.140625 L 10.359375 -9.828125 C 10.148438 -8.910156 9.945312 -7.976562 9.75 -7.03125 C 9.5625 -6.09375 9.382812 -5.21875 9.21875 -4.40625 C 9.082031 -3.75 9.148438 -3.210938 9.421875 -2.796875 C 9.703125 -2.378906 10.09375 -2.117188 10.59375 -2.015625 C 10.875 -1.960938 11.160156 -1.945312 11.453125 -1.96875 C 11.742188 -1.988281 12.082031 -2.070312 12.46875 -2.21875 C 12.6875 -2.28125 12.90625 -2.289062 13.125 -2.25 C 13.394531 -2.195312 13.644531 -2.03125 13.875 -1.75 C 14.113281 -1.476562 14.328125 -1.070312 14.515625 -0.53125 C 14.578125 -0.289062 14.613281 -0.0820312 14.625 0.09375 C 14.644531 0.269531 14.640625 0.445312 14.609375 0.625 C 14.484375 1.226562 13.984375 1.660156 13.109375 1.921875 C 12.429688 2.203125 11.785156 2.359375 11.171875 2.390625 C 10.554688 2.421875 9.789062 2.34375 8.875 2.15625 Z M 8.875 2.15625 "/></g></g></g><g fill="#ffffff" fill-opacity="1"><g transform="translate(161.417429, 300.224754)"><g><path d="M 9.96875 1.3125 C 6.976562 1.019531 4.832031 0.0507812 3.53125 -1.59375 C 2.238281 -3.238281 1.722656 -5.359375 1.984375 -7.953125 C 2.234375 -10.546875 3.171875 -12.503906 4.796875 -13.828125 C 6.429688 -15.148438 8.800781 -15.65625 11.90625 -15.34375 C 13.695312 -15.164062 15.132812 -14.78125 16.21875 -14.1875 C 17.3125 -13.59375 18.085938 -12.851562 18.546875 -11.96875 C 19.003906 -11.082031 19.179688 -10.128906 19.078125 -9.109375 C 18.929688 -7.566406 18.3125 -6.40625 17.21875 -5.625 C 16.125 -4.84375 14.421875 -4.5625 12.109375 -4.78125 C 11.066406 -4.882812 10.113281 -5.09375 9.25 -5.40625 C 8.394531 -5.726562 7.617188 -6.128906 6.921875 -6.609375 C 7.015625 -4.179688 8.609375 -2.816406 11.703125 -2.515625 C 12.578125 -2.421875 13.316406 -2.445312 13.921875 -2.59375 C 14.523438 -2.738281 15.148438 -2.957031 15.796875 -3.25 C 15.921875 -3.289062 16.050781 -3.328125 16.1875 -3.359375 C 16.320312 -3.390625 16.453125 -3.398438 16.578125 -3.390625 C 17.179688 -3.328125 17.628906 -2.882812 17.921875 -2.0625 C 18.109375 -1.625 18.179688 -1.210938 18.140625 -0.828125 C 18.109375 -0.523438 17.984375 -0.269531 17.765625 -0.0625 C 17.554688 0.144531 17.257812 0.328125 16.875 0.484375 C 15.945312 0.929688 14.941406 1.21875 13.859375 1.34375 C 12.785156 1.46875 11.488281 1.457031 9.96875 1.3125 Z M 7.5625 -9.625 C 8.007812 -9.226562 8.523438 -8.890625 9.109375 -8.609375 C 9.703125 -8.328125 10.40625 -8.144531 11.21875 -8.0625 C 12.15625 -7.96875 12.851562 -8.035156 13.3125 -8.265625 C 13.78125 -8.503906 14.039062 -8.863281 14.09375 -9.34375 C 14.144531 -9.882812 13.960938 -10.34375 13.546875 -10.71875 C 13.128906 -11.09375 12.441406 -11.328125 11.484375 -11.421875 C 9.671875 -11.609375 8.363281 -11.007812 7.5625 -9.625 Z M 7.5625 -9.625 "/></g></g></g><g fill="#ffffff" fill-opacity="1"><g transform="translate(181.654033, 302.555208)"><g><path d="M 3.984375 0.125 C 3.203125 0.15625 2.628906 0.0351562 2.265625 -0.234375 C 1.910156 -0.503906 1.707031 -1.101562 1.65625 -2.03125 C 1.632812 -2.582031 1.601562 -3.289062 1.5625 -4.15625 C 1.53125 -5.03125 1.5 -5.960938 1.46875 -6.953125 C 1.445312 -7.953125 1.421875 -8.945312 1.390625 -9.9375 C 1.367188 -10.9375 1.359375 -11.832031 1.359375 -12.625 C 1.359375 -13.414062 1.367188 -14.03125 1.390625 -14.46875 C 1.429688 -15.269531 1.640625 -15.832031 2.015625 -16.15625 C 2.390625 -16.476562 2.910156 -16.65625 3.578125 -16.6875 C 4.679688 -16.75 5.421875 -16.617188 5.796875 -16.296875 C 6.179688 -15.972656 6.378906 -15.40625 6.390625 -14.59375 L 6.390625 -14.46875 C 7.035156 -15.257812 7.773438 -15.878906 8.609375 -16.328125 C 9.453125 -16.773438 10.332031 -17.019531 11.25 -17.0625 C 12.519531 -17.132812 13.609375 -16.941406 14.515625 -16.484375 C 15.429688 -16.023438 16.09375 -15.242188 16.5 -14.140625 C 17.007812 -15.222656 17.757812 -16.0625 18.75 -16.65625 C 19.738281 -17.25 20.882812 -17.582031 22.1875 -17.65625 C 23.90625 -17.738281 25.296875 -17.269531 26.359375 -16.25 C 27.421875 -15.226562 28.019531 -13.410156 28.15625 -10.796875 C 28.238281 -9.378906 28.238281 -8.078125 28.15625 -6.890625 C 28.082031 -5.703125 27.960938 -4.445312 27.796875 -3.125 C 27.753906 -2.457031 27.613281 -1.957031 27.375 -1.625 C 27.132812 -1.300781 26.710938 -1.125 26.109375 -1.09375 C 25.828125 -1.070312 25.503906 -1.09375 25.140625 -1.15625 C 24.273438 -1.25 23.671875 -1.410156 23.328125 -1.640625 C 22.992188 -1.867188 22.816406 -2.222656 22.796875 -2.703125 C 22.785156 -2.804688 22.78125 -2.914062 22.78125 -3.03125 C 22.789062 -3.15625 22.804688 -3.28125 22.828125 -3.40625 C 22.898438 -4.0625 22.960938 -4.78125 23.015625 -5.5625 C 23.066406 -6.34375 23.101562 -7.097656 23.125 -7.828125 C 23.15625 -8.566406 23.15625 -9.191406 23.125 -9.703125 C 23.050781 -11.015625 22.78125 -11.914062 22.3125 -12.40625 C 21.851562 -12.90625 21.21875 -13.132812 20.40625 -13.09375 C 19.300781 -13.03125 18.441406 -12.507812 17.828125 -11.53125 C 17.222656 -10.550781 16.929688 -9.363281 16.953125 -7.96875 C 16.960938 -7.6875 16.96875 -7.296875 16.96875 -6.796875 C 16.96875 -6.296875 16.960938 -5.757812 16.953125 -5.1875 C 16.953125 -4.613281 16.945312 -4.078125 16.9375 -3.578125 C 16.9375 -3.085938 16.945312 -2.710938 16.96875 -2.453125 C 16.988281 -1.679688 16.832031 -1.164062 16.5 -0.90625 C 16.175781 -0.644531 15.539062 -0.492188 14.59375 -0.453125 C 13.84375 -0.410156 13.238281 -0.484375 12.78125 -0.671875 C 12.332031 -0.867188 12.09375 -1.273438 12.0625 -1.890625 C 12.039062 -2.628906 12.035156 -3.488281 12.046875 -4.46875 C 12.066406 -5.445312 12.085938 -6.425781 12.109375 -7.40625 C 12.128906 -8.382812 12.117188 -9.25 12.078125 -10 C 12.023438 -11.03125 11.757812 -11.710938 11.28125 -12.046875 C 10.800781 -12.390625 10.269531 -12.546875 9.6875 -12.515625 C 8.695312 -12.460938 7.882812 -11.925781 7.25 -10.90625 C 6.613281 -9.894531 6.34375 -8.578125 6.4375 -6.953125 C 6.457031 -6.546875 6.476562 -6.03125 6.5 -5.40625 C 6.519531 -4.789062 6.539062 -4.1875 6.5625 -3.59375 C 6.582031 -3.007812 6.59375 -2.53125 6.59375 -2.15625 C 6.613281 -1.34375 6.421875 -0.769531 6.015625 -0.4375 C 5.617188 -0.113281 4.941406 0.0703125 3.984375 0.125 Z M 3.984375 0.125 "/></g></g></g><g fill="#ffffff" fill-opacity="1"><g transform="translate(213.095499, 300.407556)"><g><path d="M 7.40625 -1.21875 C 5.300781 -0.769531 3.625 -0.898438 2.375 -1.609375 C 1.125 -2.328125 0.332031 -3.46875 0 -5.03125 C -0.21875 -6.070312 -0.171875 -7.03125 0.140625 -7.90625 C 0.453125 -8.78125 1.09375 -9.550781 2.0625 -10.21875 C 3.039062 -10.882812 4.421875 -11.40625 6.203125 -11.78125 C 7.085938 -11.96875 7.984375 -12.007812 8.890625 -11.90625 C 9.804688 -11.8125 10.632812 -11.59375 11.375 -11.25 C 11.320312 -11.476562 11.265625 -11.707031 11.203125 -11.9375 C 11.148438 -12.175781 11.09375 -12.367188 11.03125 -12.515625 C 10.75 -13.304688 10.226562 -13.835938 9.46875 -14.109375 C 8.707031 -14.390625 7.800781 -14.421875 6.75 -14.203125 C 5.957031 -14.035156 5.25 -13.789062 4.625 -13.46875 C 4.007812 -13.15625 3.410156 -12.800781 2.828125 -12.40625 C 2.628906 -12.300781 2.445312 -12.207031 2.28125 -12.125 C 2.125 -12.050781 1.957031 -12 1.78125 -11.96875 C 1.425781 -11.882812 1.109375 -11.925781 0.828125 -12.09375 C 0.546875 -12.257812 0.238281 -12.535156 -0.09375 -12.921875 C -0.394531 -13.304688 -0.578125 -13.664062 -0.640625 -14 C -0.703125 -14.28125 -0.675781 -14.546875 -0.5625 -14.796875 C -0.457031 -15.054688 -0.28125 -15.289062 -0.03125 -15.5 C 0.582031 -16.0625 1.453125 -16.566406 2.578125 -17.015625 C 3.703125 -17.460938 4.976562 -17.835938 6.40625 -18.140625 C 7.988281 -18.472656 9.457031 -18.519531 10.8125 -18.28125 C 12.175781 -18.039062 13.316406 -17.519531 14.234375 -16.71875 C 15.148438 -15.914062 15.753906 -14.828125 16.046875 -13.453125 C 16.242188 -12.503906 16.382812 -11.726562 16.46875 -11.125 C 16.5625 -10.519531 16.679688 -9.878906 16.828125 -9.203125 C 16.929688 -8.691406 17.117188 -8.171875 17.390625 -7.640625 C 17.671875 -7.109375 17.9375 -6.6875 18.1875 -6.375 C 18.363281 -6.113281 18.476562 -5.859375 18.53125 -5.609375 C 18.675781 -4.929688 18.207031 -4.253906 17.125 -3.578125 C 16.65625 -3.285156 16.234375 -3.101562 15.859375 -3.03125 C 14.890625 -2.820312 14.203125 -3.125 13.796875 -3.9375 C 13.660156 -4.125 13.546875 -4.289062 13.453125 -4.4375 C 13.359375 -4.59375 13.273438 -4.742188 13.203125 -4.890625 C 12.679688 -4.097656 11.972656 -3.367188 11.078125 -2.703125 C 10.179688 -2.035156 8.957031 -1.539062 7.40625 -1.21875 Z M 4.796875 -6.515625 C 5.035156 -5.378906 6.054688 -5 7.859375 -5.375 C 8.710938 -5.550781 9.429688 -5.835938 10.015625 -6.234375 C 10.597656 -6.640625 11.140625 -7.191406 11.640625 -7.890625 C 11.117188 -8.367188 10.453125 -8.6875 9.640625 -8.84375 C 8.828125 -9 8.015625 -8.992188 7.203125 -8.828125 C 6.210938 -8.617188 5.535156 -8.304688 5.171875 -7.890625 C 4.816406 -7.484375 4.691406 -7.023438 4.796875 -6.515625 Z M 4.796875 -6.515625 "/></g></g></g><g fill="#ffffff" fill-opacity="1"><g transform="translate(233.666642, 295.884197)"><g><path d="M 8.765625 -2.5 C 6.984375 -1.925781 5.441406 -1.914062 4.140625 -2.46875 C 2.847656 -3.019531 1.875 -4.316406 1.21875 -6.359375 C 0.925781 -7.265625 0.628906 -8.207031 0.328125 -9.1875 C 0.0351562 -10.175781 -0.257812 -11.164062 -0.5625 -12.15625 L -1.265625 -11.921875 C -2.046875 -11.671875 -2.640625 -11.671875 -3.046875 -11.921875 C -3.453125 -12.171875 -3.773438 -12.660156 -4.015625 -13.390625 C -4.253906 -14.140625 -4.273438 -14.71875 -4.078125 -15.125 C -3.890625 -15.53125 -3.382812 -15.863281 -2.5625 -16.125 L -1.796875 -16.375 C -1.984375 -17.019531 -2.15625 -17.632812 -2.3125 -18.21875 C -2.46875 -18.800781 -2.609375 -19.320312 -2.734375 -19.78125 C -2.878906 -20.382812 -2.820312 -20.835938 -2.5625 -21.140625 C -2.300781 -21.453125 -1.882812 -21.703125 -1.3125 -21.890625 C -0.238281 -22.242188 0.5625 -22.351562 1.09375 -22.21875 C 1.625 -22.082031 1.972656 -21.601562 2.140625 -20.78125 C 2.242188 -20.414062 2.359375 -19.988281 2.484375 -19.5 C 2.609375 -19.007812 2.753906 -18.472656 2.921875 -17.890625 C 3.523438 -18.066406 4.101562 -18.242188 4.65625 -18.421875 C 5.207031 -18.597656 5.675781 -18.75 6.0625 -18.875 C 6.75 -19.101562 7.285156 -19.085938 7.671875 -18.828125 C 8.066406 -18.566406 8.375 -18.085938 8.59375 -17.390625 C 8.820312 -16.703125 8.867188 -16.140625 8.734375 -15.703125 C 8.597656 -15.273438 8.175781 -14.953125 7.46875 -14.734375 L 4.171875 -13.65625 C 4.441406 -12.75 4.722656 -11.835938 5.015625 -10.921875 C 5.316406 -10.015625 5.59375 -9.164062 5.84375 -8.375 C 6.050781 -7.738281 6.378906 -7.304688 6.828125 -7.078125 C 7.273438 -6.847656 7.742188 -6.8125 8.234375 -6.96875 C 8.492188 -7.0625 8.742188 -7.191406 8.984375 -7.359375 C 9.234375 -7.523438 9.488281 -7.765625 9.75 -8.078125 C 9.914062 -8.242188 10.101562 -8.359375 10.3125 -8.421875 C 10.582031 -8.515625 10.882812 -8.5 11.21875 -8.375 C 11.5625 -8.25 11.941406 -7.992188 12.359375 -7.609375 C 12.523438 -7.429688 12.660156 -7.269531 12.765625 -7.125 C 12.878906 -6.988281 12.960938 -6.835938 13.015625 -6.671875 C 13.203125 -6.085938 12.984375 -5.460938 12.359375 -4.796875 C 11.898438 -4.222656 11.410156 -3.769531 10.890625 -3.4375 C 10.367188 -3.101562 9.660156 -2.789062 8.765625 -2.5 Z M 8.765625 -2.5 "/></g></g></g><g fill="#ffffff" fill-opacity="1"><g transform="translate(248.128544, 291.05608)"><g><path d="M 4.203125 -1.359375 C 3.191406 -0.953125 2.46875 -0.820312 2.03125 -0.96875 C 1.601562 -1.113281 1.257812 -1.503906 1 -2.140625 C 0.625 -3.078125 0.296875 -3.984375 0.015625 -4.859375 C -0.253906 -5.742188 -0.609375 -6.765625 -1.046875 -7.921875 C -1.285156 -8.523438 -1.503906 -9.085938 -1.703125 -9.609375 C -1.898438 -10.128906 -2.101562 -10.640625 -2.3125 -11.140625 C -2.488281 -11.597656 -2.675781 -12.050781 -2.875 -12.5 C -3.082031 -12.945312 -3.285156 -13.414062 -3.484375 -13.90625 C -3.734375 -14.519531 -3.789062 -15.039062 -3.65625 -15.46875 C -3.519531 -15.894531 -3.101562 -16.316406 -2.40625 -16.734375 C -2.300781 -16.796875 -2.1875 -16.851562 -2.0625 -16.90625 C -1.945312 -16.957031 -1.84375 -17.003906 -1.75 -17.046875 C -1.164062 -17.273438 -0.65625 -17.332031 -0.21875 -17.21875 C 0.21875 -17.101562 0.582031 -16.769531 0.875 -16.21875 C 1.25 -15.5 1.5625 -14.820312 1.8125 -14.1875 C 1.96875 -13.8125 2.117188 -13.421875 2.265625 -13.015625 C 2.410156 -12.609375 2.570312 -12.191406 2.75 -11.765625 C 2.894531 -11.398438 3.082031 -10.878906 3.3125 -10.203125 C 3.539062 -9.535156 3.789062 -8.820312 4.0625 -8.0625 C 4.34375 -7.3125 4.609375 -6.59375 4.859375 -5.90625 C 5.109375 -5.21875 5.3125 -4.675781 5.46875 -4.28125 C 5.789062 -3.476562 5.84375 -2.863281 5.625 -2.4375 C 5.40625 -2.007812 4.929688 -1.648438 4.203125 -1.359375 Z M -6.21875 -20.46875 C -6.300781 -20.664062 -6.375 -20.851562 -6.4375 -21.03125 C -6.5 -21.207031 -6.570312 -21.394531 -6.65625 -21.59375 C -6.914062 -22.25 -6.925781 -22.789062 -6.6875 -23.21875 C -6.445312 -23.644531 -5.914062 -24.023438 -5.09375 -24.359375 C -4.113281 -24.753906 -3.382812 -24.875 -2.90625 -24.71875 C -2.4375 -24.5625 -2.101562 -24.238281 -1.90625 -23.75 C -1.71875 -23.28125 -1.550781 -22.875 -1.40625 -22.53125 C -1.257812 -22.1875 -1.15625 -21.867188 -1.09375 -21.578125 C -0.875 -20.890625 -0.90625 -20.359375 -1.1875 -19.984375 C -1.46875 -19.617188 -2.015625 -19.273438 -2.828125 -18.953125 C -3.578125 -18.648438 -4.15625 -18.519531 -4.5625 -18.5625 C -4.976562 -18.613281 -5.300781 -18.804688 -5.53125 -19.140625 C -5.769531 -19.484375 -6 -19.925781 -6.21875 -20.46875 Z M -6.21875 -20.46875 "/></g></g></g><g fill="#ffffff" fill-opacity="1"><g transform="translate(257.042919, 287.66046)"><g><path d="M 4.4375 -1.9375 C 3.382812 -1.394531 2.59375 -1.164062 2.0625 -1.25 C 1.539062 -1.332031 1.140625 -1.65625 0.859375 -2.21875 C 0.816406 -2.289062 0.773438 -2.367188 0.734375 -2.453125 C 0.691406 -2.546875 0.65625 -2.628906 0.625 -2.703125 C 0.375 -3.441406 0.0507812 -4.273438 -0.34375 -5.203125 C -0.75 -6.140625 -1.175781 -7.085938 -1.625 -8.046875 C -2.070312 -9.015625 -2.503906 -9.898438 -2.921875 -10.703125 C -4.160156 -13.117188 -5.210938 -15.113281 -6.078125 -16.6875 C -6.941406 -18.269531 -7.6875 -19.613281 -8.3125 -20.71875 C -8.71875 -21.519531 -8.800781 -22.148438 -8.5625 -22.609375 C -8.332031 -23.066406 -7.707031 -23.554688 -6.6875 -24.078125 C -6.082031 -24.390625 -5.585938 -24.5 -5.203125 -24.40625 C -4.816406 -24.320312 -4.445312 -23.984375 -4.09375 -23.390625 C -3.445312 -22.335938 -2.628906 -20.894531 -1.640625 -19.0625 C -0.660156 -17.226562 0.378906 -15.234375 1.484375 -13.078125 C 1.859375 -13.441406 2.222656 -13.832031 2.578125 -14.25 C 2.941406 -14.675781 3.296875 -15.140625 3.640625 -15.640625 C 4.242188 -16.535156 4.75 -17.394531 5.15625 -18.21875 C 5.5625 -19.050781 5.90625 -19.921875 6.1875 -20.828125 C 6.40625 -21.429688 6.738281 -21.847656 7.1875 -22.078125 C 7.8125 -22.398438 8.539062 -22.3125 9.375 -21.8125 C 10.039062 -21.40625 10.476562 -21.003906 10.6875 -20.609375 C 10.84375 -20.304688 10.894531 -19.992188 10.84375 -19.671875 C 10.789062 -19.347656 10.6875 -19.007812 10.53125 -18.65625 C 10.226562 -17.84375 9.953125 -17.144531 9.703125 -16.5625 C 9.460938 -15.988281 9.191406 -15.4375 8.890625 -14.90625 C 8.597656 -14.375 8.210938 -13.769531 7.734375 -13.09375 C 7.597656 -12.925781 7.460938 -12.75 7.328125 -12.5625 C 7.203125 -12.375 7.050781 -12.1875 6.875 -12 C 7.238281 -11.875 7.597656 -11.765625 7.953125 -11.671875 C 8.316406 -11.585938 8.679688 -11.539062 9.046875 -11.53125 C 9.828125 -11.46875 10.578125 -11.484375 11.296875 -11.578125 C 12.015625 -11.679688 12.6875 -11.800781 13.3125 -11.9375 C 14.226562 -12.1875 14.90625 -11.878906 15.34375 -11.015625 C 15.5 -10.710938 15.628906 -10.332031 15.734375 -9.875 C 15.878906 -9.144531 15.851562 -8.570312 15.65625 -8.15625 C 15.457031 -7.738281 15.148438 -7.425781 14.734375 -7.21875 C 14.597656 -7.144531 14.453125 -7.085938 14.296875 -7.046875 C 14.140625 -7.015625 14 -6.972656 13.875 -6.921875 C 12.65625 -6.671875 11.53125 -6.546875 10.5 -6.546875 C 9.46875 -6.546875 8.4375 -6.65625 7.40625 -6.875 C 6.726562 -7.007812 6.085938 -7.191406 5.484375 -7.421875 C 4.890625 -7.660156 4.328125 -7.925781 3.796875 -8.21875 C 4.078125 -7.519531 4.328125 -6.890625 4.546875 -6.328125 C 4.773438 -5.773438 4.976562 -5.269531 5.15625 -4.8125 C 5.519531 -4.03125 5.628906 -3.425781 5.484375 -3 C 5.335938 -2.570312 4.988281 -2.21875 4.4375 -1.9375 Z M 4.4375 -1.9375 "/></g></g></g></svg>