<svg xmlns="http://www.w3.org/2000/svg" xmlns:xlink="http://www.w3.org/1999/xlink" width="1120" zoomAndPan="magnify" viewBox="0 0 840 839.999992" height="1120" preserveAspectRatio="xMidYMid meet" version="1.0"><defs><clipPath id="ab51826250"><path d="M 54.757812 54.757812 L 785.257812 54.757812 L 785.257812 785.257812 L 54.757812 785.257812 Z M 54.757812 54.757812 " clip-rule="nonzero"/></clipPath></defs><g clip-path="url(#ab51826250)"><path fill="#b2b2b2" d="M 419.996094 54.757812 C 414.015625 54.757812 408.042969 54.902344 402.074219 55.195312 C 396.101562 55.488281 390.144531 55.929688 384.195312 56.515625 C 378.246094 57.101562 372.316406 57.832031 366.402344 58.710938 C 360.492188 59.585938 354.601562 60.609375 348.742188 61.773438 C 342.878906 62.941406 337.046875 64.25 331.25 65.703125 C 325.449219 67.15625 319.691406 68.75 313.972656 70.484375 C 308.25 72.21875 302.578125 74.09375 296.949219 76.105469 C 291.320312 78.121094 285.746094 80.269531 280.222656 82.558594 C 274.703125 84.847656 269.238281 87.269531 263.835938 89.824219 C 258.433594 92.378906 253.09375 95.066406 247.824219 97.882812 C 242.550781 100.703125 237.351562 103.648438 232.226562 106.71875 C 227.097656 109.792969 222.050781 112.988281 217.078125 116.308594 C 212.109375 119.632812 207.222656 123.070312 202.421875 126.632812 C 197.621094 130.195312 192.910156 133.871094 188.289062 137.660156 C 183.667969 141.453125 179.144531 145.355469 174.714844 149.371094 C 170.285156 153.386719 165.960938 157.503906 161.730469 161.730469 C 157.503906 165.960938 153.386719 170.285156 149.371094 174.714844 C 145.355469 179.144531 141.453125 183.667969 137.660156 188.289062 C 133.871094 192.910156 130.195312 197.621094 126.632812 202.421875 C 123.070312 207.222656 119.632812 212.109375 116.308594 217.078125 C 112.988281 222.050781 109.792969 227.097656 106.71875 232.226562 C 103.644531 237.351562 100.699219 242.550781 97.882812 247.824219 C 95.066406 253.09375 92.378906 258.433594 89.824219 263.835938 C 87.269531 269.238281 84.847656 274.703125 82.558594 280.222656 C 80.269531 285.746094 78.121094 291.320312 76.105469 296.949219 C 74.09375 302.578125 72.21875 308.25 70.484375 313.972656 C 68.75 319.691406 67.15625 325.449219 65.703125 331.25 C 64.25 337.046875 62.941406 342.878906 61.773438 348.742188 C 60.609375 354.601562 59.585938 360.492188 58.710938 366.402344 C 57.832031 372.316406 57.101562 378.246094 56.515625 384.195312 C 55.929688 390.144531 55.488281 396.101562 55.195312 402.074219 C 54.902344 408.042969 54.757812 414.015625 54.757812 419.996094 C 54.757812 425.972656 54.902344 431.945312 55.195312 437.917969 C 55.488281 443.886719 55.929688 449.847656 56.515625 455.792969 C 57.101562 461.742188 57.832031 467.671875 58.710938 473.585938 C 59.585938 479.5 60.609375 485.386719 61.773438 491.25 C 62.941406 497.113281 64.25 502.941406 65.703125 508.742188 C 67.15625 514.539062 68.75 520.296875 70.484375 526.019531 C 72.21875 531.738281 74.09375 537.410156 76.105469 543.039062 C 78.121094 548.667969 80.269531 554.242188 82.558594 559.765625 C 84.847656 565.289062 87.269531 570.75 89.824219 576.152344 C 92.378906 581.558594 95.066406 586.894531 97.882812 592.167969 C 100.699219 597.4375 103.644531 602.636719 106.71875 607.765625 C 109.792969 612.890625 112.988281 617.941406 116.308594 622.910156 C 119.632812 627.878906 123.070312 632.765625 126.632812 637.566406 C 130.195312 642.367188 133.871094 647.078125 137.660156 651.699219 C 141.453125 656.320312 145.355469 660.84375 149.371094 665.273438 C 153.386719 669.703125 157.503906 674.03125 161.730469 678.257812 C 165.960938 682.484375 170.285156 686.605469 174.714844 690.617188 C 179.144531 694.632812 183.667969 698.535156 188.289062 702.328125 C 192.910156 706.121094 197.621094 709.796875 202.421875 713.355469 C 207.222656 716.917969 212.109375 720.359375 217.078125 723.679688 C 222.050781 727 227.097656 730.195312 232.226562 733.269531 C 237.351562 736.34375 242.550781 739.289062 247.824219 742.105469 C 253.09375 744.925781 258.433594 747.609375 263.835938 750.167969 C 269.238281 752.722656 274.703125 755.144531 280.222656 757.429688 C 285.746094 759.71875 291.320312 761.867188 296.949219 763.882812 C 302.578125 765.898438 308.25 767.769531 313.972656 769.507812 C 319.691406 771.242188 325.449219 772.835938 331.25 774.289062 C 337.046875 775.738281 342.878906 777.050781 348.742188 778.214844 C 354.601562 779.382812 360.492188 780.402344 366.402344 781.28125 C 372.316406 782.15625 378.246094 782.886719 384.195312 783.472656 C 390.144531 784.058594 396.101562 784.5 402.074219 784.792969 C 408.042969 785.085938 414.015625 785.234375 419.996094 785.234375 C 425.972656 785.234375 431.945312 785.085938 437.917969 784.792969 C 443.886719 784.5 449.847656 784.058594 455.792969 783.472656 C 461.742188 782.886719 467.671875 782.15625 473.585938 781.28125 C 479.5 780.402344 485.386719 779.382812 491.25 778.214844 C 497.113281 777.050781 502.941406 775.738281 508.742188 774.289062 C 514.539062 772.835938 520.296875 771.242188 526.019531 769.507812 C 531.738281 767.769531 537.410156 765.898438 543.039062 763.882812 C 548.667969 761.867188 554.242188 759.71875 559.765625 757.429688 C 565.289062 755.144531 570.75 752.722656 576.152344 750.167969 C 581.558594 747.609375 586.894531 744.925781 592.167969 742.105469 C 597.4375 739.289062 602.636719 736.34375 607.765625 733.269531 C 612.890625 730.195312 617.941406 727 622.910156 723.679688 C 627.878906 720.359375 632.765625 716.917969 637.566406 713.355469 C 642.367188 709.796875 647.078125 706.121094 651.699219 702.328125 C 656.320312 698.535156 660.84375 694.632812 665.273438 690.617188 C 669.703125 686.605469 674.03125 682.484375 678.257812 678.257812 C 682.484375 674.03125 686.605469 669.703125 690.617188 665.273438 C 694.632812 660.84375 698.535156 656.320312 702.328125 651.699219 C 706.121094 647.078125 709.796875 642.367188 713.355469 637.566406 C 716.917969 632.765625 720.359375 627.878906 723.679688 622.910156 C 727 617.941406 730.195312 612.890625 733.269531 607.765625 C 736.34375 602.636719 739.289062 597.4375 742.105469 592.167969 C 744.925781 586.894531 747.609375 581.558594 750.167969 576.152344 C 752.722656 570.75 755.144531 565.289062 757.429688 559.765625 C 759.71875 554.242188 761.867188 548.667969 763.882812 543.039062 C 765.894531 537.410156 767.769531 531.738281 769.507812 526.019531 C 771.242188 520.296875 772.835938 514.539062 774.289062 508.742188 C 775.738281 502.941406 777.050781 497.113281 778.214844 491.25 C 779.382812 485.386719 780.402344 479.5 781.28125 473.585938 C 782.15625 467.671875 782.886719 461.742188 783.472656 455.792969 C 784.058594 449.847656 784.5 443.886719 784.792969 437.917969 C 785.085938 431.945312 785.234375 425.972656 785.234375 419.996094 C 785.226562 414.019531 785.074219 408.046875 784.773438 402.078125 C 784.476562 396.109375 784.03125 390.152344 783.441406 384.207031 C 782.847656 378.261719 782.113281 372.332031 781.230469 366.421875 C 780.347656 360.511719 779.320312 354.625 778.152344 348.765625 C 776.980469 342.90625 775.667969 337.078125 774.210938 331.285156 C 772.753906 325.488281 771.160156 319.730469 769.417969 314.015625 C 767.679688 308.296875 765.804688 302.625 763.789062 297 C 761.769531 291.375 759.617188 285.804688 757.328125 280.285156 C 755.039062 274.765625 752.613281 269.304688 750.058594 263.902344 C 747.5 258.503906 744.8125 253.167969 741.992188 247.898438 C 739.175781 242.628906 736.226562 237.433594 733.152344 232.308594 C 730.082031 227.183594 726.882812 222.136719 723.5625 217.171875 C 720.238281 212.203125 716.800781 207.320312 713.238281 202.519531 C 709.679688 197.722656 706 193.011719 702.210938 188.394531 C 698.417969 183.773438 694.515625 179.25 690.503906 174.824219 C 686.488281 170.398438 682.371094 166.070312 678.144531 161.84375 C 673.917969 157.621094 669.59375 153.5 665.164062 149.488281 C 660.738281 145.472656 656.214844 141.570312 651.597656 137.78125 C 646.976562 133.988281 642.269531 130.3125 637.46875 126.75 C 632.671875 123.191406 627.789062 119.75 622.820312 116.429688 C 617.851562 113.105469 612.804688 109.910156 607.679688 106.835938 C 602.558594 103.761719 597.359375 100.816406 592.089844 97.996094 C 586.820312 95.175781 581.488281 92.488281 576.085938 89.933594 C 570.6875 87.375 565.226562 84.949219 559.707031 82.660156 C 554.1875 80.371094 548.613281 78.21875 542.988281 76.203125 C 537.363281 74.1875 531.691406 72.308594 525.976562 70.570312 C 520.257812 68.832031 514.5 67.234375 508.707031 65.777344 C 502.910156 64.320312 497.082031 63.007812 491.222656 61.839844 C 485.363281 60.667969 479.476562 59.640625 473.566406 58.757812 C 467.65625 57.878906 461.730469 57.140625 455.78125 56.550781 C 449.835938 55.957031 443.878906 55.515625 437.910156 55.214844 C 431.941406 54.914062 425.96875 54.761719 419.996094 54.757812 Z M 250.832031 481.507812 C 248.816406 481.507812 246.808594 481.410156 244.800781 481.210938 C 242.796875 481.015625 240.808594 480.71875 238.832031 480.328125 C 236.855469 479.933594 234.902344 479.445312 232.976562 478.859375 C 231.046875 478.273438 229.152344 477.597656 227.292969 476.828125 C 225.429688 476.054688 223.609375 475.195312 221.835938 474.246094 C 220.058594 473.296875 218.332031 472.261719 216.65625 471.140625 C 214.980469 470.023438 213.363281 468.824219 211.808594 467.546875 C 210.25 466.269531 208.757812 464.917969 207.335938 463.492188 C 205.910156 462.066406 204.558594 460.574219 203.28125 459.019531 C 202.003906 457.460938 200.804688 455.84375 199.683594 454.171875 C 198.566406 452.496094 197.53125 450.769531 196.582031 448.992188 C 195.632812 447.214844 194.769531 445.394531 194 443.535156 C 193.230469 441.671875 192.550781 439.777344 191.96875 437.851562 C 191.382812 435.921875 190.894531 433.972656 190.5 431.996094 C 190.105469 430.019531 189.8125 428.027344 189.613281 426.023438 C 189.417969 424.019531 189.316406 422.007812 189.316406 419.996094 C 189.316406 417.980469 189.417969 415.96875 189.613281 413.964844 C 189.8125 411.960938 190.105469 409.96875 190.5 407.992188 C 190.894531 406.019531 191.382812 404.066406 191.96875 402.136719 C 192.550781 400.210938 193.230469 398.316406 194 396.453125 C 194.769531 394.59375 195.632812 392.773438 196.582031 390.996094 C 197.53125 389.222656 198.566406 387.496094 199.683594 385.820312 C 200.804688 384.144531 202.003906 382.527344 203.28125 380.972656 C 204.558594 379.414062 205.910156 377.921875 207.335938 376.496094 C 208.757812 375.074219 210.25 373.722656 211.808594 372.445312 C 213.363281 371.164062 214.980469 369.96875 216.65625 368.847656 C 218.332031 367.730469 220.058594 366.695312 221.835938 365.746094 C 223.609375 364.792969 225.429688 363.933594 227.292969 363.164062 C 229.152344 362.390625 231.046875 361.714844 232.976562 361.128906 C 234.902344 360.546875 236.855469 360.054688 238.832031 359.664062 C 240.808594 359.269531 242.796875 358.976562 244.800781 358.777344 C 246.808594 358.578125 248.816406 358.480469 250.832031 358.480469 C 252.847656 358.480469 254.855469 358.578125 256.859375 358.777344 C 258.867188 358.976562 260.855469 359.269531 262.832031 359.664062 C 264.808594 360.054688 266.761719 360.546875 268.6875 361.128906 C 270.617188 361.714844 272.511719 362.390625 274.371094 363.164062 C 276.234375 363.933594 278.050781 364.792969 279.828125 365.746094 C 281.605469 366.695312 283.332031 367.730469 285.007812 368.847656 C 286.683594 369.96875 288.296875 371.164062 289.855469 372.445312 C 291.414062 373.722656 292.902344 375.074219 294.328125 376.496094 C 295.753906 377.921875 297.105469 379.414062 298.382812 380.972656 C 299.660156 382.527344 300.859375 384.144531 301.980469 385.820312 C 303.097656 387.496094 304.132812 389.21875 305.082031 390.996094 C 306.03125 392.773438 306.890625 394.59375 307.664062 396.453125 C 308.433594 398.316406 309.113281 400.210938 309.695312 402.136719 C 310.28125 404.066406 310.769531 406.019531 311.164062 407.992188 C 311.558594 409.96875 311.851562 411.960938 312.050781 413.964844 C 312.246094 415.96875 312.34375 417.980469 312.34375 419.996094 C 312.34375 422.007812 312.246094 424.019531 312.050781 426.023438 C 311.851562 428.027344 311.558594 430.019531 311.164062 431.996094 C 310.769531 433.972656 310.28125 435.921875 309.695312 437.851562 C 309.113281 439.777344 308.433594 441.671875 307.664062 443.535156 C 306.890625 445.394531 306.03125 447.214844 305.082031 448.992188 C 304.132812 450.769531 303.097656 452.496094 301.980469 454.171875 C 300.859375 455.84375 299.660156 457.460938 298.382812 459.019531 C 297.105469 460.574219 295.753906 462.066406 294.328125 463.492188 C 292.902344 464.917969 291.414062 466.269531 289.855469 467.546875 C 288.296875 468.824219 286.683594 470.023438 285.007812 471.140625 C 283.332031 472.261719 281.605469 473.296875 279.828125 474.246094 C 278.050781 475.195312 276.234375 476.054688 274.371094 476.828125 C 272.511719 477.597656 270.617188 478.273438 268.6875 478.859375 C 266.761719 479.445312 264.808594 479.933594 262.832031 480.328125 C 260.855469 480.71875 258.867188 481.015625 256.859375 481.210938 C 254.855469 481.410156 252.847656 481.507812 250.832031 481.507812 Z M 419.996094 481.507812 C 417.980469 481.507812 415.96875 481.410156 413.964844 481.210938 C 411.960938 481.015625 409.96875 480.71875 407.992188 480.328125 C 406.019531 479.933594 404.066406 479.445312 402.136719 478.859375 C 400.210938 478.273438 398.316406 477.597656 396.453125 476.828125 C 394.59375 476.054688 392.773438 475.195312 390.996094 474.246094 C 389.21875 473.296875 387.496094 472.261719 385.820312 471.140625 C 384.144531 470.023438 382.527344 468.824219 380.972656 467.546875 C 379.414062 466.269531 377.921875 464.917969 376.496094 463.492188 C 375.074219 462.066406 373.722656 460.574219 372.445312 459.019531 C 371.164062 457.460938 369.96875 455.84375 368.847656 454.171875 C 367.730469 452.496094 366.695312 450.769531 365.746094 448.992188 C 364.792969 447.214844 363.933594 445.394531 363.164062 443.535156 C 362.390625 441.671875 361.714844 439.777344 361.128906 437.851562 C 360.546875 435.921875 360.054688 433.972656 359.664062 431.996094 C 359.269531 430.019531 358.976562 428.027344 358.777344 426.023438 C 358.578125 424.019531 358.480469 422.007812 358.480469 419.996094 C 358.480469 417.980469 358.578125 415.96875 358.777344 413.964844 C 358.976562 411.960938 359.269531 409.96875 359.664062 407.992188 C 360.054688 406.019531 360.546875 404.066406 361.128906 402.136719 C 361.714844 400.210938 362.390625 398.316406 363.164062 396.453125 C 363.933594 394.59375 364.792969 392.773438 365.746094 390.996094 C 366.695312 389.222656 367.730469 387.496094 368.847656 385.820312 C 369.96875 384.144531 371.164062 382.527344 372.445312 380.972656 C 373.722656 379.414062 375.074219 377.921875 376.496094 376.496094 C 377.921875 375.074219 379.414062 373.722656 380.972656 372.445312 C 382.527344 371.164062 384.144531 369.96875 385.820312 368.847656 C 387.496094 367.730469 389.21875 366.695312 390.996094 365.746094 C 392.773438 364.792969 394.59375 363.933594 396.453125 363.164062 C 398.316406 362.390625 400.210938 361.714844 402.136719 361.128906 C 404.066406 360.546875 406.019531 360.054688 407.992188 359.664062 C 409.96875 359.269531 411.960938 358.976562 413.964844 358.777344 C 415.96875 358.578125 417.980469 358.480469 419.996094 358.480469 C 422.007812 358.480469 424.019531 358.578125 426.023438 358.777344 C 428.027344 358.976562 430.019531 359.269531 431.996094 359.664062 C 433.972656 360.054688 435.921875 360.546875 437.851562 361.128906 C 439.777344 361.714844 441.671875 362.390625 443.535156 363.164062 C 445.394531 363.933594 447.214844 364.792969 448.992188 365.746094 C 450.769531 366.695312 452.496094 367.730469 454.171875 368.847656 C 455.84375 369.96875 457.460938 371.164062 459.019531 372.445312 C 460.574219 373.722656 462.066406 375.074219 463.492188 376.496094 C 464.917969 377.921875 466.265625 379.414062 467.546875 380.972656 C 468.824219 382.527344 470.023438 384.144531 471.140625 385.820312 C 472.261719 387.496094 473.296875 389.21875 474.246094 390.996094 C 475.195312 392.773438 476.054688 394.59375 476.828125 396.453125 C 477.597656 398.316406 478.273438 400.210938 478.859375 402.136719 C 479.445312 404.066406 479.933594 406.019531 480.328125 407.992188 C 480.71875 409.96875 481.015625 411.960938 481.210938 413.964844 C 481.410156 415.96875 481.507812 417.980469 481.507812 419.996094 C 481.507812 422.007812 481.410156 424.019531 481.210938 426.023438 C 481.015625 428.027344 480.71875 430.019531 480.328125 431.996094 C 479.933594 433.972656 479.445312 435.921875 478.859375 437.851562 C 478.273438 439.777344 477.597656 441.671875 476.828125 443.535156 C 476.054688 445.394531 475.195312 447.214844 474.246094 448.992188 C 473.296875 450.769531 472.261719 452.496094 471.140625 454.171875 C 470.023438 455.84375 468.824219 457.460938 467.546875 459.019531 C 466.265625 460.574219 464.917969 462.066406 463.492188 463.492188 C 462.066406 464.917969 460.574219 466.269531 459.019531 467.546875 C 457.460938 468.824219 455.84375 470.023438 454.171875 471.140625 C 452.496094 472.261719 450.769531 473.296875 448.992188 474.246094 C 447.214844 475.195312 445.394531 476.054688 443.535156 476.828125 C 441.671875 477.597656 439.777344 478.273438 437.851562 478.859375 C 435.921875 479.445312 433.972656 479.933594 431.996094 480.328125 C 430.019531 480.71875 428.027344 481.015625 426.023438 481.210938 C 424.019531 481.410156 422.007812 481.507812 419.996094 481.507812 Z M 589.15625 481.507812 C 587.144531 481.507812 585.132812 481.410156 583.128906 481.210938 C 581.125 481.015625 579.132812 480.71875 577.15625 480.328125 C 575.179688 479.933594 573.230469 479.445312 571.300781 478.859375 C 569.375 478.273438 567.480469 477.597656 565.617188 476.828125 C 563.757812 476.054688 561.9375 475.195312 560.160156 474.246094 C 558.382812 473.296875 556.65625 472.261719 554.984375 471.140625 C 553.308594 470.023438 551.691406 468.824219 550.132812 467.546875 C 548.578125 466.269531 547.085938 464.917969 545.660156 463.492188 C 544.238281 462.066406 542.886719 460.574219 541.605469 459.019531 C 540.328125 457.460938 539.128906 455.84375 538.011719 454.171875 C 536.890625 452.496094 535.855469 450.769531 534.90625 448.992188 C 533.957031 447.214844 533.097656 445.394531 532.328125 443.535156 C 531.554688 441.671875 530.878906 439.777344 530.292969 437.851562 C 529.707031 435.921875 529.21875 433.972656 528.824219 431.996094 C 528.433594 430.019531 528.136719 428.027344 527.941406 426.023438 C 527.742188 424.019531 527.644531 422.007812 527.644531 419.996094 C 527.644531 417.980469 527.742188 415.96875 527.941406 413.964844 C 528.136719 411.960938 528.433594 409.96875 528.824219 407.992188 C 529.21875 406.019531 529.707031 404.066406 530.292969 402.136719 C 530.878906 400.210938 531.554688 398.316406 532.328125 396.453125 C 533.097656 394.59375 533.957031 392.773438 534.90625 390.996094 C 535.855469 389.222656 536.890625 387.496094 538.011719 385.820312 C 539.128906 384.144531 540.328125 382.527344 541.605469 380.972656 C 542.886719 379.414062 544.238281 377.921875 545.660156 376.496094 C 547.085938 375.074219 548.578125 373.722656 550.132812 372.445312 C 551.691406 371.164062 553.308594 369.96875 554.984375 368.847656 C 556.65625 367.730469 558.382812 366.695312 560.160156 365.746094 C 561.9375 364.792969 563.757812 363.933594 565.617188 363.164062 C 567.480469 362.390625 569.375 361.714844 571.300781 361.128906 C 573.230469 360.546875 575.179688 360.054688 577.15625 359.664062 C 579.132812 359.269531 581.125 358.976562 583.128906 358.777344 C 585.132812 358.578125 587.144531 358.480469 589.15625 358.480469 C 591.171875 358.480469 593.183594 358.578125 595.1875 358.777344 C 597.191406 358.976562 599.183594 359.269531 601.160156 359.664062 C 603.132812 360.054688 605.085938 360.546875 607.015625 361.128906 C 608.941406 361.714844 610.835938 362.390625 612.699219 363.164062 C 614.558594 363.933594 616.378906 364.792969 618.15625 365.746094 C 619.933594 366.695312 621.65625 367.730469 623.332031 368.847656 C 625.007812 369.96875 626.625 371.164062 628.183594 372.445312 C 629.738281 373.722656 631.230469 375.074219 632.65625 376.496094 C 634.078125 377.921875 635.429688 379.414062 636.707031 380.972656 C 637.988281 382.527344 639.183594 384.144531 640.304688 385.820312 C 641.425781 387.496094 642.457031 389.21875 643.40625 390.996094 C 644.359375 392.773438 645.21875 394.59375 645.988281 396.453125 C 646.761719 398.316406 647.4375 400.210938 648.023438 402.136719 C 648.609375 404.066406 649.097656 406.019531 649.488281 407.992188 C 649.882812 409.96875 650.179688 411.960938 650.375 413.964844 C 650.574219 415.96875 650.671875 417.980469 650.671875 419.996094 C 650.671875 422.007812 650.574219 424.019531 650.375 426.023438 C 650.179688 428.027344 649.882812 430.019531 649.488281 431.996094 C 649.097656 433.972656 648.609375 435.921875 648.023438 437.851562 C 647.4375 439.777344 646.761719 441.671875 645.988281 443.535156 C 645.21875 445.394531 644.359375 447.214844 643.40625 448.992188 C 642.457031 450.769531 641.425781 452.496094 640.304688 454.171875 C 639.183594 455.84375 637.988281 457.460938 636.707031 459.019531 C 635.429688 460.574219 634.078125 462.066406 632.65625 463.492188 C 631.230469 464.917969 629.738281 466.269531 628.183594 467.546875 C 626.625 468.824219 625.007812 470.023438 623.332031 471.140625 C 621.65625 472.261719 619.933594 473.296875 618.15625 474.246094 C 616.378906 475.195312 614.558594 476.054688 612.699219 476.828125 C 610.835938 477.597656 608.941406 478.273438 607.015625 478.859375 C 605.085938 479.445312 603.132812 479.933594 601.160156 480.328125 C 599.183594 480.71875 597.191406 481.015625 595.1875 481.210938 C 593.183594 481.410156 591.171875 481.507812 589.15625 481.507812 Z M 589.15625 481.507812 " fill-opacity="1" fill-rule="nonzero"/></g></svg>