<svg xmlns="http://www.w3.org/2000/svg" width="200" height="200" viewBox="0 0 200 200">
  <rect width="200" height="200" fill="#f3f4f6" rx="12"/>
  <g transform="translate(50, 50)">
    <path d="M50 20 L80 20 L80 35 L95 35 L95 50 L80 50 L80 65 L65 65 L65 80 L50 80 L50 95 L35 95 L35 80 L20 80 L20 65 L5 65 L5 50 L20 50 L20 35 L35 35 L35 20 L50 20 Z" fill="#6b7280"/>
    <circle cx="50" cy="50" r="25" fill="none" stroke="#6b7280" stroke-width="2"/>
    <path d="M40 40 L60 60 M60 40 L40 60" stroke="#6b7280" stroke-width="2"/>
  </g>
  <text x="100" y="150" text-anchor="middle" fill="#6b7280" font-family="Arial, sans-serif" font-size="16" font-weight="bold">Course Image</text>
  <text x="100" y="170" text-anchor="middle" fill="#9ca3af" font-family="Arial, sans-serif" font-size="12">Click to upload</text>
</svg> 